<svg width="144" height="144" viewBox="0 0 144 144" fill="none" xmlns="http://www.w3.org/2000/svg">
<circle cx="72" cy="72" r="72" fill="#171717"/>
<path d="M60.692 14H84.6133V16.9532H60.692V14Z" fill="#E2A52A"/>
<path fill-rule="evenodd" clip-rule="evenodd" d="M75.0649 110.742C74.2522 111.024 73.432 111.301 72.6095 111.571C71.854 111.318 71.0956 111.058 70.3363 110.79V32.6319C70.3363 20.3496 61.4303 19.4163 56.0573 19.4163V22.6847C64.0524 23.174 66.9069 25.3701 66.9069 32.6319V109.537C60.4369 107.087 54.1568 104.234 49.4779 101.591C46.3153 99.8072 43.4516 97.6204 41.0833 94.8572C38.7185 92.0952 37.0122 88.8229 35.6415 85.4742C33.0438 79.1272 31.3979 72.5566 31.802 65.6594C32.2722 57.6187 35.4314 49.9238 39.8336 43.2561C40.9612 41.5464 42.1848 39.8435 43.5179 38.2365C43.9995 38.2593 44.448 38.2136 44.8772 38.1075C45.4604 37.958 45.9786 37.6841 46.4739 37.3496C46.7182 37.1784 46.9499 36.9844 47.1724 36.7767C47.3995 36.5713 47.6164 36.351 47.823 36.117C48.2304 35.6422 48.6253 35.1469 48.9746 34.6207C49.6754 33.5867 50.2746 32.5183 50.7094 31.7114C50.9263 31.3074 51.102 30.9718 51.2196 30.7356C51.2621 30.6522 51.2961 30.5835 51.3237 30.5278C51.3354 30.5042 51.3459 30.483 51.3554 30.464C51.3805 30.4057 51.3931 30.3749 51.3931 30.3749H51.2949C51.2603 30.3784 51.2175 30.3836 51.1663 30.3898C51.1163 30.3959 51.0584 30.403 50.9925 30.4103C50.7277 30.4457 50.343 30.513 49.8854 30.6249C48.9677 30.8451 47.7396 31.2515 46.5583 31.8952C45.3839 32.548 44.2369 33.4177 43.527 34.5031C43.1617 35.0339 42.9163 35.6239 42.8056 36.2391C42.7086 36.7493 42.728 37.2892 42.8673 37.8461C39.7628 41.5372 37.1925 45.7887 35.2009 50.0482C32.739 55.3109 31.2575 61.0051 31.0327 66.8179C30.777 73.4948 32.5918 79.8965 35.1016 86.0198C37.1183 90.9447 39.9979 95.4279 44.1239 98.8496C47.928 102.002 52.563 104.159 57.1135 105.999C59.6426 107.019 62.6577 108.481 65.8557 110.031L65.8568 110.032L65.858 110.032L65.8583 110.032C66.2058 110.201 66.5555 110.37 66.9069 110.541V113.31C63.7991 114.184 58.7704 115.771 56.2537 116.194C55.8006 116.269 58.1358 118.643 58.5707 118.512C60.6494 117.886 64.8121 116.305 66.9069 115.556V120.951H56.0573V124.497H89.3424V120.951H78.494V115.718C80.8578 116.608 85.7641 117.885 87.7719 118.221C88.2216 118.294 89.6209 115.898 89.1712 115.822C86.7314 115.415 81.3542 114.188 78.494 113.386V110.898C84.0185 108.449 89.2936 105.804 93.9651 103.263C100.072 99.9373 104.653 95.2179 107.667 88.9405C110.456 83.1311 112.426 76.7042 112.716 70.2511C113.117 61.3098 110.116 52.5397 105.463 45.0057C104.099 42.7984 102.574 40.599 100.885 38.5572C101.031 37.9865 101.051 37.4364 100.954 36.9159C100.841 36.303 100.596 35.7095 100.233 35.18C99.5234 34.0968 98.3764 33.2249 97.2019 32.5743C96.0172 31.9283 94.7903 31.522 93.8726 31.3017C93.4127 31.1876 93.0314 31.1259 92.7678 31.086L92.737 31.0828L92.6976 31.0786L92.6541 31.0739L92.6537 31.0739C92.5739 31.0653 92.5086 31.0583 92.4619 31.0552C92.3992 31.0529 92.3626 31.0529 92.3626 31.0529C92.3626 31.0529 92.3775 31.0814 92.4026 31.1442C92.4238 31.1858 92.4505 31.24 92.4831 31.3062C92.4996 31.3397 92.5177 31.3763 92.5373 31.4158C92.6571 31.6498 92.8317 31.9865 93.0497 32.3917C93.4846 33.1986 94.0803 34.2646 94.7857 35.2987C95.1338 35.8248 95.5287 36.3213 95.9362 36.795C96.1427 37.0289 96.3573 37.2492 96.5879 37.4524C96.8082 37.6624 97.0421 37.8564 97.2841 38.0253C97.7817 38.362 98.2999 38.6359 98.8831 38.7855C99.3259 38.895 99.7905 38.9441 100.29 38.9121C103.536 42.7505 106.193 47.2085 108.214 51.6826C110.79 57.3802 112.165 63.5959 112.017 69.8527C111.854 76.6768 109.579 83.6002 106.52 89.6607C104.138 94.3778 100.67 98.2253 96.2386 101.09C92.2691 103.656 87.9183 105.58 83.596 107.45C82.0175 108.133 80.2956 108.825 78.494 109.503V32.6319C78.494 25.9608 80.1834 23.4505 89.0431 22.6847V19.4163C80.331 19.4163 75.0649 22.6847 75.0649 32.6319V110.742ZM75.0649 120.951H70.3363V114.282C71.1537 113.967 71.9696 113.645 72.7829 113.317C73.5465 113.664 74.3083 114.002 75.0649 114.328V120.951ZM70.3363 112.296C70.3841 112.281 70.4319 112.266 70.4797 112.251L70.3363 112.184V112.296Z" fill="#E2A52A"/>
<path d="M53.3089 126.814H92.587V130.358H53.3089V126.814Z" fill="#E2A52A"/>
<path d="M56.601 106.47C57.2196 106.69 57.7959 107.029 58.4294 107.504C58.0231 108.899 56.8007 109.782 55.3638 110.188C53.9166 110.604 52.2582 110.572 50.7379 110.305C49.2097 110.04 47.807 109.549 46.7934 109.114C45.7799 108.682 45.1499 108.317 45.1499 108.317C45.1499 108.317 45.7936 108.06 46.7797 107.732C47.7727 107.393 49.0967 106.977 50.4925 106.633C51.8884 106.296 53.3436 106.044 54.6778 106.107C55.3489 106.133 55.9846 106.252 56.601 106.47Z" fill="#E2A52A"/>
<path d="M54.1674 101.316C54.7107 102.535 55.4982 103.725 56.5322 104.501C57.0493 104.885 57.6222 105.177 58.242 105.295C58.8571 105.417 59.5203 105.384 60.1617 105.114C60.1971 103.655 59.7976 102.502 59.1744 101.49C58.5478 100.486 57.6587 99.6189 56.7422 98.8701C55.8235 98.126 54.8864 97.504 54.1765 97.0554C53.4689 96.6137 52.985 96.3535 52.985 96.3535C52.985 96.3535 52.9918 96.5099 53.0158 96.7861C53.042 97.0554 53.0888 97.4457 53.1653 97.916C53.3216 98.8485 53.623 100.101 54.1674 101.316Z" fill="#E2A52A"/>
<path d="M47.6349 102.801C46.7709 103.967 45.5337 104.503 44.1367 104.571C42.742 104.638 41.1943 104.233 39.7791 103.586C38.3638 102.947 37.0798 102.075 36.1736 101.326C35.7842 101.008 35.4641 100.712 35.2232 100.49C35.1824 100.452 35.1438 100.416 35.1076 100.383C34.8587 100.14 34.7252 99.9929 34.7252 99.9929C34.7252 99.9929 35.4157 99.9803 36.516 99.962C36.7532 99.9605 37.0075 99.9578 37.2755 99.9549H37.2833C38.227 99.945 39.3383 99.9333 40.4593 99.9643C41.9031 100.011 43.372 100.116 44.6309 100.502C45.8909 100.89 46.9421 101.561 47.6349 102.801Z" fill="#E2A52A"/>
<path d="M46.7938 99.0615C47.5847 100.065 48.6941 100.727 50.0683 100.657C50.6275 99.3149 50.5317 98.0355 50.155 96.8587C49.7749 95.6866 49.1038 94.6091 48.4248 93.671C47.7445 92.7351 47.0494 91.9362 46.5404 91.3621C46.2904 91.0722 46.077 90.8427 45.9264 90.6864C45.7848 90.5254 45.6958 90.441 45.6958 90.441C45.6958 90.441 45.649 90.5859 45.5805 90.8427C45.5109 91.103 45.4345 91.4739 45.3614 91.9282C45.2119 92.8447 45.1468 94.0944 45.3397 95.4081C45.5315 96.7126 46.0017 98.0515 46.7938 99.0615Z" fill="#E2A52A"/>
<path d="M28.071 88.5544C28.071 88.5544 28.7101 88.7381 29.702 89.0497C30.6835 89.3636 31.9766 89.819 33.2367 90.4125C33.5505 90.562 33.861 90.7161 34.1703 90.8873C34.5036 91.0745 34.8266 91.2617 35.137 91.458C35.4532 91.6451 35.7636 91.8323 36.0524 92.0309C36.0896 92.0563 36.1268 92.0817 36.1639 92.107C36.415 92.2781 36.6633 92.4472 36.889 92.6301C37.9447 93.4565 38.73 94.4083 39.0552 95.8042C37.8934 96.6762 36.5317 96.8234 35.1256 96.3726C33.724 95.9309 32.2951 94.8763 31.1366 93.4987C30.9962 93.3252 30.8547 93.1483 30.7177 92.9703L30.5134 92.7032L30.3536 92.4852C30.1493 92.2021 29.9553 91.9213 29.7738 91.6429C29.412 91.0893 29.0993 90.5609 28.8448 90.1066C28.5891 89.6512 28.3883 89.2655 28.257 88.9938C28.1315 88.7199 28.071 88.5544 28.071 88.5544Z" fill="#E2A52A"/>
<path d="M39.3939 91.5269C39.7682 92.731 40.6345 93.7205 41.9573 94.0264C42.8761 92.9011 43.1683 91.6695 43.2447 90.5065C43.3086 89.3423 43.1591 88.2398 43.0324 87.3142C42.9902 86.9216 42.8327 86.2573 42.6855 85.7426C42.5382 85.2096 42.375 84.7279 42.2244 84.3273C42.1039 83.9977 41.9857 83.7177 41.8949 83.5024L41.8675 83.4375C41.8574 83.4136 41.8478 83.3906 41.8386 83.3686C41.7541 83.1369 41.6993 83.0079 41.6993 83.0079C41.6993 83.0079 41.6058 83.1369 41.454 83.3709C41.2965 83.6117 41.1047 83.9461 40.8844 84.365C40.4473 85.2004 39.92 86.3714 39.5559 87.6692C39.4623 87.9944 39.3813 88.3243 39.3128 88.6633C39.2512 88.9748 39.2044 89.2944 39.177 89.622C39.1565 89.945 39.1713 90.2657 39.201 90.5921C39.2329 90.9117 39.306 91.221 39.3939 91.5269Z" fill="#E2A52A"/>
<path d="M28.9507 84.9158C28.6802 84.6864 28.4108 84.4388 28.1837 84.158C27.7134 83.6113 27.2832 82.9961 26.8985 82.3729C26.0962 81.1357 25.6157 79.7787 25.2698 78.7663C25.0986 78.2607 24.9719 77.8372 24.8886 77.5359C24.8144 77.2346 24.7882 77.0612 24.7882 77.0612C24.7882 77.0612 25.3737 77.3739 26.3039 77.8703C27.2136 78.3771 28.404 79.0699 29.5339 79.8814C30.6992 80.6815 31.8519 81.582 32.5984 82.6206C32.6353 82.6744 32.6727 82.7281 32.7101 82.7818C32.8552 82.99 33.0004 83.1984 33.1211 83.4161C33.2763 83.6878 33.4007 83.9708 33.4943 84.263C33.677 84.8542 33.7294 85.4899 33.6119 86.185C32.2195 86.5925 30.9411 86.2797 29.7872 85.5402C29.4996 85.3575 29.22 85.1453 28.9507 84.9158Z" fill="#E2A52A"/>
<path d="M35.711 83.613C35.9815 84.1586 36.3798 84.6447 36.9334 85.0328C38.1946 84.3081 38.917 83.2249 39.2994 82.0482C39.3975 81.7537 39.4706 81.4524 39.5265 81.1477C39.5562 80.9959 39.579 80.8441 39.5961 80.6912C39.6085 80.6116 39.6203 80.5314 39.6321 80.451C39.6431 80.3758 39.6542 80.3005 39.6658 80.2255C39.7457 79.6034 39.7662 78.9814 39.7456 78.3822C39.668 77.1918 39.5938 76.0687 39.442 75.255C39.3864 74.9278 39.3265 74.6486 39.2796 74.4303C39.2678 74.3752 39.2568 74.324 39.2469 74.2768C39.2081 74.0451 39.1807 73.9139 39.1807 73.9139C39.1807 73.9139 39.0642 74.0212 38.8702 74.2175C38.6693 74.4161 38.4183 74.6991 38.1226 75.0621C37.5314 75.7868 36.7953 76.8209 36.1949 78.0227C35.63 79.2154 35.2613 80.5599 35.2693 81.8348C35.2647 82.1555 35.3184 82.4614 35.3926 82.7581C35.4702 83.056 35.574 83.3414 35.711 83.613Z" fill="#E2A52A"/>
<path d="M26.3361 73.6074C26.1226 73.3221 25.9377 73.0116 25.762 72.6886C25.4047 72.0437 25.1046 71.3487 24.8478 70.6456C24.7119 70.2952 24.624 69.9368 24.5396 69.5841C24.4563 69.2326 24.3832 68.8845 24.317 68.5478C24.1949 67.8744 24.0842 67.2444 24.0465 66.7023C23.9826 65.6168 24.0031 64.8967 24.0031 64.8967C24.0031 64.8967 24.5316 65.3475 25.2769 66.054C25.455 66.2282 25.6522 66.4172 25.8623 66.6185C26.5097 67.2388 27.2795 67.9766 27.9921 68.7624C28.2272 69.0203 28.459 69.2863 28.6792 69.5579C28.8949 69.8307 29.1152 70.1069 29.3344 70.3808C29.7635 70.9378 30.1321 71.5062 30.3981 72.0905C30.535 72.3793 30.6355 72.6761 30.7257 72.9728C30.825 73.2696 30.8934 73.5697 30.9277 73.8756C30.9962 74.4862 30.9254 75.1151 30.6766 75.7748C29.2339 75.9129 28.0367 75.3605 27.0403 74.3949C26.7937 74.1552 26.5575 73.8904 26.3361 73.6074Z" fill="#E2A52A"/>
<path d="M34.1176 75.0005C35.4952 74.5257 36.4141 73.6115 37.019 72.5637C37.1708 72.2989 37.2997 72.0284 37.4161 71.75C37.5508 71.4692 37.6661 71.1861 37.7688 70.8985C37.9708 70.3256 38.1135 69.7412 38.2116 69.1728C38.2329 69.0606 38.2546 68.949 38.2761 68.8382C38.3631 68.3899 38.4476 67.9548 38.4924 67.5475C38.5232 67.2884 38.5472 67.0453 38.5632 66.8136C38.5663 66.7652 38.5692 66.7173 38.5719 66.67C38.5824 66.4935 38.5923 66.3257 38.6157 66.1699C38.7013 65.379 38.691 64.8574 38.691 64.8574C38.691 64.8574 38.1569 65.1519 37.3944 65.6997C37.205 65.8378 36.9995 65.9919 36.7861 66.1585C36.5693 66.3297 36.349 66.5158 36.1413 66.7155C35.7155 67.1172 35.2773 67.5783 34.863 68.0885C34.6564 68.3453 34.4566 68.6101 34.266 68.8886C34.1713 69.0267 34.0789 69.1694 33.9933 69.3098C33.9145 69.4547 33.838 69.5997 33.7672 69.7469C33.4808 70.3335 33.2605 70.951 33.1407 71.5707C33.0847 71.8789 33.0414 72.1882 33.0505 72.4918C33.0676 72.7954 33.1144 73.0956 33.1932 73.3855C33.3541 73.971 33.6508 74.5211 34.1176 75.0005Z" fill="#E2A52A"/>
<path d="M28.1053 55.8014C28.442 56.3606 28.7912 56.9667 29.1131 57.5864C29.1735 57.7084 29.2351 57.8314 29.297 57.9551L29.2971 57.9554L29.2974 57.9559C29.5499 58.4604 29.8085 58.9773 30.0239 59.4913C30.2966 60.1316 30.4884 60.7685 30.6128 61.3951C30.7555 62.024 30.8011 62.6437 30.703 63.2475C30.6607 63.5454 30.5626 63.8444 30.461 64.1412C30.3572 64.4368 30.2156 64.729 30.0285 65.0211C28.5984 64.818 27.4947 63.9996 26.8099 62.8184C26.4572 62.2351 26.1821 61.5595 25.9675 60.8438C25.7758 60.1305 25.6811 59.3772 25.6171 58.6285C25.5852 58.2541 25.5624 57.8809 25.5601 57.5157C25.5704 57.1516 25.5898 56.8001 25.6171 56.4565C25.6651 55.7717 25.7415 55.1394 25.8226 54.5995C26.0383 53.537 26.2426 52.8521 26.2426 52.8521C26.2426 52.8521 26.6364 53.4183 27.1797 54.2902C27.4433 54.7228 27.756 55.2353 28.1053 55.8014Z" fill="#E2A52A"/>
<path d="M36.8978 63.0897C37.3315 62.6662 37.6968 62.1891 38.0061 61.6938C38.3462 61.1984 38.6452 60.6906 38.8849 60.1804C38.9524 60.0436 39.0112 59.9072 39.0695 59.7722C39.1197 59.6559 39.1695 59.5406 39.2239 59.4271C39.3414 59.1817 39.4499 58.9409 39.5446 58.7069C39.6941 58.3499 39.8097 58.0098 39.9139 57.7034C39.9449 57.6121 39.975 57.5238 40.0046 57.4389C40.2888 56.7027 40.4132 56.2062 40.4132 56.2062C40.4132 56.2062 39.822 56.3489 38.9454 56.6788C38.046 57.0017 36.9663 57.5484 35.8923 58.3109L35.8882 58.3139C35.6269 58.5047 35.3501 58.7069 35.1139 58.9283C34.8765 59.1463 34.6471 59.3814 34.4325 59.6234C34.0034 60.1142 33.6142 60.6472 33.3563 61.211C33.1166 61.7794 32.9785 62.3752 32.9807 62.9721C32.9853 63.2688 33.007 63.5679 33.1029 63.8635C33.1988 64.1602 33.3357 64.4524 33.5161 64.7378C34.9667 64.5985 36.0087 63.9343 36.8978 63.0897Z" fill="#E2A52A"/>
<path d="M33.141 52.9856C33.0212 53.2618 32.8671 53.5266 32.6742 53.7788C32.4996 54.0379 32.2896 54.281 32.0305 54.5116C31.3605 54.2308 30.8195 53.8245 30.3915 53.3234C29.9555 52.8201 29.6839 52.2335 29.4819 51.576C29.3837 51.2485 29.3107 50.9061 29.2582 50.5511C29.2045 50.1996 29.1657 49.8286 29.1748 49.468C29.1771 48.7398 29.2536 47.9865 29.3711 47.2527C29.6622 45.81 30.1233 44.4347 30.5821 43.4737C30.8013 42.9874 30.9964 42.5903 31.1379 42.3163C31.2863 42.0447 31.3799 41.8975 31.3799 41.8975C31.3799 41.8975 31.6162 42.5263 31.954 43.509C32.293 44.4917 32.6719 45.7803 33.0246 47.1511C33.1981 47.8381 33.3168 48.5172 33.4206 49.202C33.5256 49.888 33.5724 50.5568 33.5245 51.188C33.5202 51.2314 33.5161 51.2747 33.5119 51.3181L33.5118 51.3193C33.486 51.5883 33.4602 51.8564 33.4092 52.1136C33.3499 52.4172 33.2608 52.7071 33.141 52.9856Z" fill="#E2A52A"/>
<path d="M44.0813 48.5632C44.2045 48.3691 44.2696 48.2573 44.2696 48.2573C44.2696 48.2573 44.1144 48.2573 43.8416 48.2687C43.5642 48.2778 43.1876 48.3064 42.7299 48.3646C42.2711 48.4228 41.7335 48.5095 41.1526 48.6408C40.8661 48.7081 40.5579 48.7812 40.2612 48.8725C39.9667 48.9683 39.6665 49.0711 39.3675 49.1932C38.7694 49.434 38.1508 49.7216 37.611 50.0823C37.0791 50.4452 36.5895 50.8676 36.1866 51.3401C35.9812 51.574 35.8248 51.8331 35.689 52.0979C35.5543 52.365 35.4482 52.6435 35.3751 52.9288C35.3009 53.2164 35.2621 53.5132 35.2632 53.8156C35.2792 54.1249 35.3375 54.4399 35.439 54.7606C36.1535 54.8793 36.8143 54.8474 37.4204 54.7116C38.0207 54.5757 38.6097 54.3509 39.1278 54.0496C39.3881 53.9024 39.6369 53.738 39.872 53.5565C39.9905 53.4722 40.1032 53.3766 40.216 53.2809L40.2167 53.2803C40.3319 53.189 40.4495 53.0932 40.5625 52.9973C41.0156 52.607 41.4174 52.1812 41.7758 51.7487C42.1604 51.3252 42.5051 50.8972 42.7938 50.4863C42.8529 50.4051 42.9105 50.3209 42.966 50.2397L42.9663 50.2393L42.9665 50.239L43.005 50.1827C43.0347 50.1428 43.0635 50.1035 43.092 50.0647C43.1334 50.0084 43.1742 49.9528 43.2161 49.8974C43.3497 49.7102 43.474 49.5344 43.5825 49.3689C43.7781 49.0765 43.9311 48.8175 44.0454 48.6238L44.0813 48.5632Z" fill="#E2A52A"/>
<path d="M38.0279 43.7149C37.673 44.2012 37.2119 44.6166 36.5933 44.9282C35.436 44.0585 34.9018 42.8395 34.8162 41.479C34.7831 40.8056 34.8573 40.0992 35.0068 39.3858C35.1621 38.6793 35.4143 37.9865 35.6905 37.3109C35.9747 36.642 36.3251 36.02 36.6561 35.4471C36.9689 34.9087 37.3065 34.4437 37.5996 34.0401L37.6627 33.953C37.9698 33.5273 38.2505 33.1998 38.4503 32.9726C38.6511 32.7467 38.7664 32.6154 38.7664 32.6154C38.7664 32.6154 38.8771 33.2888 38.9821 34.2943C39.0403 34.8045 39.1031 35.3991 39.151 36.0394C39.175 36.3579 39.1944 36.6854 39.207 37.0221C39.2264 37.3611 39.2423 37.7103 39.2503 38.0585C39.264 39.4429 39.2035 40.8741 38.8292 42.076C38.6568 42.6877 38.4012 43.2447 38.0279 43.7149Z" fill="#E2A52A"/>
<path d="M46.6987 44.1988C47.1621 43.8598 47.6061 43.5163 47.9862 43.1762C48.3731 42.8372 48.7292 42.5233 49.0122 42.2425C49.1635 42.0875 49.3039 41.9495 49.4265 41.8288C49.5314 41.7256 49.6235 41.6351 49.6982 41.5577C49.8591 41.3911 49.9447 41.2929 49.9447 41.2929C49.9447 41.2929 49.3432 41.1594 48.405 41.0658C47.9405 41.0213 47.3995 40.9985 46.8049 41.0008C46.2102 41.0031 45.5665 41.043 44.9319 41.1457C43.6377 41.3352 42.3377 41.7746 41.3447 42.5119C40.8631 42.8908 40.4556 43.3371 40.1714 43.8541C39.9043 44.3803 39.7685 44.9841 39.8005 45.6437C41.1393 46.2281 42.3993 46.1767 43.5521 45.8423C44.1387 45.6768 44.6923 45.4372 45.2081 45.1473C45.7366 44.8654 46.2422 44.5423 46.6987 44.1988Z" fill="#E2A52A"/>
<path d="M93.0189 110.979C94.5483 110.719 95.9499 110.228 96.9634 109.793C97.9769 109.359 98.6069 108.996 98.6069 108.996C98.6069 108.996 97.962 108.739 96.9736 108.409C95.9818 108.072 94.659 107.653 93.262 107.31C91.8638 106.973 90.4132 106.723 89.0778 106.784C88.4045 106.81 87.7699 106.926 87.1535 107.144C86.5349 107.367 85.9585 107.704 85.3251 108.181C85.7326 109.574 86.9561 110.456 88.393 110.863C89.838 111.279 91.4975 111.246 93.0189 110.979Z" fill="#E2A52A"/>
<path d="M87.2242 105.183C86.7071 105.566 86.1331 105.856 85.5156 105.974C84.8993 106.096 84.2339 106.065 83.597 105.792C83.5582 104.334 83.9565 103.182 84.5797 102.17C85.2086 101.166 86.0977 100.297 87.0153 99.5502C87.933 98.8061 88.8712 98.1818 89.5788 97.7355C90.2853 97.2927 90.7703 97.0336 90.7703 97.0336C90.7703 97.0336 90.7646 97.1922 90.7407 97.4662C90.7121 97.7355 90.6676 98.1258 90.5911 98.5938C90.4325 99.5274 90.1335 100.781 89.5879 101.997C89.0469 103.214 88.2571 104.402 87.2242 105.183Z" fill="#E2A52A"/>
<path d="M103.298 100.646C101.853 100.693 100.383 100.796 99.1271 101.181C97.8659 101.572 96.8136 102.243 96.1219 103.478C96.9859 104.645 98.2231 105.185 99.6201 105.25C101.016 105.318 102.56 104.911 103.975 104.27C105.392 103.627 106.676 102.756 107.581 102.005C108.012 101.66 108.36 101.333 108.608 101.101L108.649 101.063C108.897 100.82 109.033 100.675 109.033 100.675C109.033 100.675 108.34 100.661 107.239 100.644C107.032 100.642 106.812 100.639 106.581 100.637H106.578C105.613 100.625 104.46 100.612 103.298 100.646Z" fill="#E2A52A"/>
<path d="M96.9635 99.736C96.1737 100.743 95.0631 101.405 93.6901 101.332C93.1297 99.9929 93.2279 98.7134 93.6022 97.5356C93.9823 96.3611 94.6534 95.286 95.3313 94.3478C96.0116 93.4119 96.7066 92.6141 97.2168 92.0366C97.4656 91.7489 97.6779 91.5195 97.8297 91.3609C97.9736 91.2023 98.0603 91.1178 98.0603 91.1178C98.0603 91.1178 98.1059 91.2604 98.1744 91.5195C98.2452 91.782 98.3216 92.1484 98.3936 92.605C98.5454 93.5192 98.6115 94.7746 98.4164 96.0849C98.2258 97.3906 97.7544 98.7305 96.9635 99.736Z" fill="#E2A52A"/>
<path d="M112.621 94.1777C112.764 94.0042 112.905 93.825 113.042 93.6493L113.244 93.3799L113.404 93.1642C113.609 92.8811 113.802 92.5981 113.984 92.3219C114.344 91.7718 114.657 91.2433 114.914 90.7879C115.168 90.3314 115.366 89.9456 115.498 89.6751C115.627 89.4012 115.687 89.2334 115.687 89.2334C115.687 89.2334 115.046 89.4206 114.056 89.7288C113.074 90.0426 111.78 90.5003 110.522 91.0904C110.207 91.2399 109.897 91.3939 109.587 91.5652C109.256 91.7523 108.932 91.9418 108.622 92.1336C108.573 92.1632 108.525 92.1927 108.476 92.2222C108.212 92.3829 107.952 92.5413 107.707 92.7111C107.676 92.7325 107.644 92.754 107.612 92.7754C107.354 92.9495 107.099 93.1223 106.871 93.3103C105.812 94.1355 105.028 95.0851 104.702 96.4821C105.865 97.354 107.228 97.5035 108.631 97.0504C110.036 96.6099 111.465 95.5553 112.621 94.1777Z" fill="#E2A52A"/>
<path d="M102.87 85.0423C103.309 85.8778 103.837 87.0477 104.202 88.3431C104.292 88.6684 104.374 89.0028 104.442 89.3395C104.506 89.6522 104.553 89.9729 104.579 90.2982C104.599 90.6246 104.584 90.9453 104.558 91.2706C104.527 91.5913 104.449 91.9006 104.362 92.2042C103.989 93.4095 103.122 94.3968 101.8 94.7049C100.881 93.5818 100.587 92.3492 100.512 91.1873C100.449 90.0422 100.593 88.9595 100.715 88.0466L100.723 87.9904C100.764 87.5978 100.925 86.9381 101.069 86.4211C101.218 85.8881 101.38 85.4087 101.53 85.0058C101.669 84.6327 101.799 84.3248 101.895 84.0992L101.918 84.0448C102.003 83.8142 102.056 83.6853 102.056 83.6853C102.056 83.6853 102.149 83.8165 102.3 84.0505C102.459 84.289 102.649 84.6212 102.87 85.0423Z" fill="#E2A52A"/>
<path d="M118.867 78.215C118.941 77.9137 118.969 77.7379 118.969 77.7379C118.969 77.7379 118.385 78.0495 117.454 78.5494C116.544 79.0516 115.353 79.749 114.225 80.5582C113.058 81.356 111.907 82.2588 111.159 83.2974C111.117 83.3586 111.075 83.4196 111.032 83.4807C110.893 83.6815 110.752 83.8829 110.635 84.0929C110.482 84.3646 110.356 84.6476 110.265 84.9421C110.079 85.531 110.03 86.1656 110.148 86.8641C111.538 87.2659 112.82 86.9554 113.972 86.2181C114.261 86.0355 114.539 85.8232 114.809 85.5961C115.077 85.3644 115.349 85.1167 115.576 84.8382C116.046 84.2904 116.477 83.6763 116.861 83.0509C117.662 81.8114 118.145 80.4566 118.49 79.4465C118.658 78.9364 118.787 78.5129 118.867 78.215Z" fill="#E2A52A"/>
<path d="M108.045 84.2904C107.775 84.836 107.375 85.3245 106.822 85.7125C105.561 84.9855 104.841 83.9024 104.455 82.7222C104.359 82.4301 104.284 82.1276 104.228 81.8217C104.199 81.6711 104.177 81.5193 104.158 81.3652C104.148 81.3024 104.139 81.2398 104.129 81.1769L104.128 81.1728C104.115 81.0828 104.101 80.9921 104.086 80.8995C104.009 80.2775 103.986 79.6543 104.009 79.0585C104.085 77.8658 104.159 76.7473 104.31 75.929C104.372 75.5662 104.439 75.2624 104.488 75.0367L104.506 74.9531C104.544 74.7192 104.573 74.5879 104.573 74.5879C104.573 74.5879 104.688 74.6952 104.884 74.8915C105.085 75.0901 105.334 75.3754 105.629 75.7384C106.219 76.4608 106.959 77.4949 107.559 78.6967C108.124 79.8894 108.492 81.2316 108.485 82.5088C108.487 82.8307 108.433 83.1354 108.359 83.4344C108.284 83.7289 108.182 84.0211 108.045 84.2904Z" fill="#E2A52A"/>
<path d="M115.766 69.4351C115.531 69.6942 115.301 69.9612 115.079 70.2329L114.915 70.4375C114.752 70.6423 114.587 70.8487 114.421 71.0558C113.995 71.6105 113.626 72.1811 113.359 72.7632C113.223 73.0554 113.121 73.3522 113.031 73.6478C112.932 73.9468 112.865 74.2447 112.83 74.5506C112.761 75.1612 112.831 75.7923 113.079 76.452C114.523 76.5856 115.721 76.0354 116.717 75.0699C116.964 74.8336 117.199 74.5688 117.421 74.2835C117.635 73.9959 117.817 73.6877 117.997 73.367C118.352 72.7233 118.652 72.0248 118.909 71.3206C119.046 70.9702 119.133 70.6118 119.217 70.2591C119.299 69.9065 119.375 69.5595 119.439 69.2251C119.562 68.5494 119.672 67.9217 119.71 67.3772C119.774 66.2918 119.754 65.5762 119.754 65.5762C119.754 65.5762 119.224 66.0202 118.477 66.7312C118.287 66.9174 118.075 67.1204 117.849 67.3374C117.213 67.9464 116.463 68.666 115.766 69.4351Z" fill="#E2A52A"/>
<path d="M110.711 73.1737C110.694 73.4761 110.647 73.7751 110.566 74.065C110.405 74.6471 110.106 75.1972 109.642 75.68C108.264 75.2052 107.346 74.291 106.743 73.2433C106.591 72.9796 106.462 72.7057 106.347 72.4295C106.21 72.1487 106.094 71.8657 105.993 71.5781C105.79 71.0028 105.646 70.4208 105.549 69.8524C105.525 69.7231 105.5 69.5946 105.475 69.4674C105.392 69.0354 105.311 68.6172 105.269 68.2248C105.237 67.968 105.215 67.7249 105.197 67.4955L105.192 67.4125C105.181 67.2121 105.17 67.0242 105.146 66.8495C105.06 66.0563 105.067 65.537 105.067 65.537C105.067 65.537 105.604 65.8314 106.365 66.3793C106.555 66.5174 106.76 66.6714 106.975 66.8404C107.192 67.0093 107.41 67.1942 107.619 67.395C108.044 67.7957 108.483 68.2579 108.9 68.7658C109.104 69.0249 109.306 69.2897 109.496 69.5704L109.518 69.603C109.604 69.7303 109.691 69.8581 109.769 69.9916C109.847 70.1343 109.922 70.2792 109.994 70.4265C110.281 71.0154 110.501 71.6283 110.62 72.2457C110.677 72.5585 110.719 72.8678 110.711 73.1737Z" fill="#E2A52A"/>
<path d="M113.147 62.0725C113 62.7014 112.957 63.3166 113.053 63.9226C113.097 64.2262 113.194 64.5196 113.297 64.8186C113.4 65.1154 113.541 65.4098 113.729 65.6986C115.158 65.4954 116.265 64.6759 116.948 63.4981C117.3 62.9091 117.577 62.2335 117.79 61.5202C117.982 60.8045 118.076 60.0535 118.143 59.3071C118.17 58.9327 118.195 58.5561 118.198 58.192C118.187 57.8313 118.168 57.4764 118.143 57.1351C118.089 56.4503 118.016 55.8157 117.935 55.2759C117.718 54.2121 117.516 53.5262 117.516 53.5262C117.516 53.5262 117.119 54.0923 116.577 54.9688C116.312 55.3991 115.998 55.9093 115.65 56.4754C115.314 57.0392 114.965 57.643 114.645 58.265L114.497 58.558C114.233 59.0836 113.959 59.6268 113.733 60.1642C113.462 60.8091 113.271 61.4437 113.147 62.0725Z" fill="#E2A52A"/>
<path d="M109.325 60.2997C109.755 60.7904 110.141 61.3211 110.401 61.8873C110.639 62.4556 110.778 63.0514 110.776 63.6449C110.772 63.9462 110.75 64.2418 110.655 64.5408C110.559 64.8353 110.422 65.1275 110.242 65.4128C108.791 65.277 107.749 64.6105 106.858 63.7682C106.426 63.3425 106.061 62.8665 105.752 62.37C105.412 61.8781 105.113 61.3622 104.873 60.8566C104.8 60.7122 104.737 60.5674 104.676 60.4241C104.629 60.3161 104.583 60.2088 104.533 60.1033C104.415 59.8579 104.308 59.6171 104.214 59.3854C104.05 58.9981 103.926 58.6276 103.816 58.3004L103.785 58.2085L103.769 58.1602L103.753 58.1128C103.467 57.379 103.345 56.8825 103.345 56.8825C103.345 56.8825 103.937 57.0251 104.812 57.355C105.711 57.6768 106.793 58.2247 107.865 58.9894L107.866 58.9896C108.129 59.1813 108.405 59.3821 108.642 59.6023C108.881 59.8226 109.111 60.0566 109.325 60.2997Z" fill="#E2A52A"/>
<path d="M112.376 42.5765C112.376 42.5765 112.138 43.2053 111.801 44.188C111.464 45.173 111.085 46.4593 110.73 47.83C110.559 48.5148 110.439 49.1985 110.336 49.881C110.229 50.5681 110.182 51.237 110.231 51.867C110.236 51.9183 110.241 51.9698 110.246 52.0215C110.271 52.281 110.296 52.543 110.346 52.7915C110.407 53.0951 110.494 53.385 110.615 53.6635C110.735 53.9374 110.887 54.2056 111.08 54.459C111.257 54.7135 111.467 54.9612 111.723 55.1928C112.393 54.9098 112.934 54.5057 113.363 54.0047C113.8 53.4991 114.07 52.9124 114.273 52.255C114.371 51.9275 114.444 51.5839 114.498 51.2301C114.55 50.8751 114.588 50.5076 114.58 50.147C114.577 49.4176 114.502 48.6644 114.382 47.9316C114.092 46.4867 113.63 45.1114 113.172 44.1527C112.954 43.6687 112.757 43.2704 112.618 42.993C112.469 42.726 112.376 42.5765 112.376 42.5765Z" fill="#E2A52A"/>
<path d="M107.569 52.0226C107.777 52.2543 107.934 52.5134 108.071 52.7804C108.204 53.0452 108.311 53.3237 108.384 53.6136C108.459 53.899 108.496 54.1968 108.496 54.4982C108.481 54.8075 108.421 55.1247 108.32 55.4409C107.606 55.5642 106.945 55.5276 106.34 55.3964C105.738 55.2606 105.148 55.0311 104.629 54.7321C104.37 54.5849 104.121 54.4194 103.887 54.2413C103.769 54.15 103.656 54.0587 103.544 53.9651C103.502 53.9302 103.46 53.8959 103.417 53.8615L103.417 53.8613C103.343 53.8014 103.268 53.7413 103.196 53.6775C102.745 53.2895 102.34 52.8638 101.985 52.4335C101.599 52.01 101.256 51.5798 100.966 51.17C100.893 51.065 100.823 50.9646 100.756 50.8664C100.72 50.82 100.685 50.7731 100.651 50.7269L100.651 50.7266C100.615 50.6775 100.579 50.6292 100.543 50.5834C100.408 50.3939 100.287 50.2193 100.176 50.0526C100.004 49.795 99.8664 49.5649 99.758 49.3829L99.7311 49.3377C99.7117 49.3052 99.6934 49.2745 99.6759 49.2457C99.5538 49.0494 99.4876 48.9375 99.4876 48.9375C99.4876 48.9375 99.644 48.9353 99.9179 48.949C100.195 48.9581 100.571 48.9866 101.03 49.0448C101.487 49.1031 102.023 49.1875 102.606 49.321C102.892 49.3861 103.2 49.4591 103.496 49.555C103.79 49.6463 104.09 49.7536 104.392 49.8734C104.989 50.1143 105.608 50.4019 106.146 50.7625C106.678 51.1289 107.167 51.5478 107.569 52.0226Z" fill="#E2A52A"/>
<path d="M107.165 45.6043C108.321 44.7346 108.856 43.518 108.943 42.1563C108.974 41.4829 108.901 40.7742 108.754 40.0631C108.596 39.3566 108.346 38.665 108.068 37.9881C107.785 37.317 107.433 36.6996 107.101 36.1221C106.798 35.5988 106.468 35.1455 106.18 34.7491L106.131 34.6815C106.119 34.6651 106.107 34.6488 106.095 34.6326C105.789 34.2046 105.508 33.877 105.307 33.6476C105.106 33.4228 104.993 33.295 104.993 33.295C104.993 33.295 104.88 33.9661 104.775 34.9716C104.714 35.4818 104.654 36.0775 104.608 36.7167C104.583 37.0328 104.564 37.3627 104.549 37.6994L104.547 37.744L104.547 37.7447C104.53 38.0695 104.513 38.4042 104.508 38.7357C104.494 40.1202 104.555 41.5514 104.927 42.7532C105.099 43.3639 105.357 43.9174 105.73 44.3922C106.083 44.8807 106.545 45.2905 107.165 45.6043Z" fill="#E2A52A"/>
<path d="M98.8259 41.8236C100.12 42.0131 101.421 42.4525 102.413 43.1898C102.896 43.5664 103.305 44.0173 103.586 44.5297C103.855 45.0604 103.989 45.6619 103.959 46.3216C102.62 46.9083 101.359 46.8569 100.206 46.5202C99.6215 46.3581 99.0667 46.115 98.5509 45.8251C98.0201 45.5444 97.5134 45.2214 97.0591 44.8778C96.5934 44.5411 96.1506 44.1953 95.7705 43.854C95.72 43.8093 95.6699 43.7651 95.6203 43.7214C95.2936 43.4334 94.9902 43.1659 94.7445 42.9181C94.6122 42.7837 94.4883 42.662 94.3775 42.5531C94.2532 42.4309 94.1453 42.325 94.0608 42.2356C93.8976 42.0667 93.8131 41.9685 93.8131 41.9685C93.8131 41.9685 94.4158 41.8396 95.3528 41.7437C95.8173 41.7015 96.356 41.6764 96.9507 41.6786C97.5476 41.6832 98.1902 41.7186 98.8259 41.8236Z" fill="#E2A52A"/>
</svg>
