<svg xmlns="http://www.w3.org/2000/svg" width="40" height="40" viewBox="0 0 40 40" fill="none">
  <path d="M23.5984 37.9992V30.7992C23.5984 29.8444 23.2192 28.9288 22.544 28.2536C21.8689 27.5785 20.9532 27.1992 19.9984 27.1992C19.0437 27.1992 18.128 27.5785 17.4529 28.2536C16.7777 28.9288 16.3984 29.8444 16.3984 30.7992V37.9992" stroke="white" stroke-width="3" stroke-linecap="round" stroke-linejoin="round"/>
  <path d="M30.8 16.4004L38 20.0004V34.4004C38 35.3552 37.6207 36.2708 36.9456 36.946C36.2705 37.6211 35.3548 38.0004 34.4 38.0004H5.6C4.64522 38.0004 3.72955 37.6211 3.05442 36.946C2.37928 36.2708 2 35.3552 2 34.4004V20.0004L9.2 16.4004" stroke="white" stroke-width="3" stroke-linecap="round" stroke-linejoin="round"/>
  <path d="M30.7969 7.40039V38.0004" stroke="white" stroke-width="3" stroke-linecap="round" stroke-linejoin="round"/>
  <path d="M5.60156 9.2L20.0016 2L34.4016 9.2" stroke="white" stroke-width="3" stroke-linecap="round" stroke-linejoin="round"/>
  <path d="M9.20312 7.40039V38.0004" stroke="white" stroke-width="3" stroke-linecap="round" stroke-linejoin="round"/>
  <path d="M19.9984 18.2C21.9867 18.2 23.5984 16.5882 23.5984 14.6C23.5984 12.6118 21.9867 11 19.9984 11C18.0102 11 16.3984 12.6118 16.3984 14.6C16.3984 16.5882 18.0102 18.2 19.9984 18.2Z" stroke="white" stroke-width="3" stroke-linecap="round" stroke-linejoin="round"/>
</svg>