<svg xmlns="http://www.w3.org/2000/svg" width="1158" height="1728" viewBox="0 0 1158 1728" fill="none">
  <path d="M280.881 0H636.114V43.8579H280.881V0Z" fill="#C4C4C4"/>
  <path d="M280.881 0H636.114V43.8579H280.881V0Z" fill="url(#paint0_linear_266_45)"/>
  <path fill-rule="evenodd" clip-rule="evenodd" d="M494.319 1436.69C482.251 1440.88 470.071 1444.99 457.856 1449C446.638 1445.25 435.374 1441.38 424.099 1437.41V276.698C424.099 94.2966 291.844 80.4368 212.054 80.4368V128.974C330.782 136.241 373.172 168.855 373.172 276.698V1418.79C277.092 1382.42 183.831 1340.04 114.35 1300.79C67.384 1274.3 24.8587 1241.83 -10.3105 1200.79C-45.4289 1159.77 -70.7673 1111.18 -91.1231 1061.45C-129.699 967.188 -154.14 869.609 -148.14 767.182C-141.157 647.771 -94.2421 533.495 -28.8697 434.475C-12.1241 409.084 6.04575 383.795 25.8422 359.93C32.9947 360.269 39.6553 359.591 46.0281 358.014C54.6891 355.794 62.3843 351.726 69.7401 346.76C73.3672 344.217 76.8079 341.336 80.1129 338.251C83.4858 335.2 86.7057 331.929 89.7735 328.454C95.8243 321.403 101.689 314.047 106.875 306.233C117.282 290.877 126.18 275.011 132.638 263.028C135.858 257.028 138.468 252.045 140.214 248.536C140.845 247.298 141.35 246.277 141.76 245.451C141.933 245.1 142.09 244.785 142.231 244.502C142.604 243.638 142.79 243.18 142.79 243.18H141.333C140.818 243.231 140.182 243.309 139.423 243.401C138.681 243.492 137.821 243.596 136.841 243.705C132.909 244.231 127.197 245.231 120.401 246.892C106.773 250.163 88.5362 256.197 70.994 265.757C53.5534 275.452 36.52 288.368 25.9778 304.487C20.554 312.369 16.9097 321.132 15.2656 330.268C13.825 337.844 14.1134 345.861 16.1812 354.133C-29.9202 408.948 -68.0896 472.086 -97.6657 535.343C-134.225 613.498 -156.225 698.061 -159.564 784.386C-163.36 883.542 -136.411 978.613 -99.1404 1069.55C-69.1914 1142.69 -26.429 1209.27 34.8417 1260.08C91.3329 1306.9 160.163 1338.93 227.739 1366.25C265.297 1381.4 310.07 1403.11 357.562 1426.13L357.578 1426.14L357.596 1426.15L357.601 1426.15C362.761 1428.66 367.953 1431.17 373.172 1433.7V1474.83C327.021 1487.8 252.345 1511.38 214.971 1517.65C208.243 1518.77 242.921 1554.03 249.378 1552.08C280.248 1542.78 342.065 1519.3 373.172 1508.18V1588.31H212.054V1640.96H706.342V1588.31H545.242V1510.58C580.345 1523.81 653.204 1542.77 683.02 1547.76C689.697 1548.85 710.477 1513.27 703.799 1512.13C667.568 1506.09 587.716 1487.87 545.242 1475.95V1439C627.282 1402.64 705.617 1363.36 774.989 1325.62C865.683 1276.23 933.7 1206.15 978.462 1112.92C1019.89 1026.65 1049.14 931.205 1053.45 835.371C1059.39 702.586 1014.83 572.344 945.734 460.459C925.48 427.678 902.835 395.016 877.751 364.693C879.92 356.218 880.209 348.048 878.768 340.319C877.09 331.217 873.463 322.403 868.073 314.538C857.531 298.453 840.497 285.503 823.057 275.842C805.463 266.249 787.243 260.214 773.616 256.943C766.786 255.248 761.125 254.333 757.209 253.74L756.753 253.692L756.167 253.63L755.521 253.561L755.516 253.56C754.331 253.433 753.361 253.329 752.667 253.282C751.735 253.248 751.193 253.248 751.193 253.248C751.193 253.248 751.413 253.672 751.786 254.604C752.101 255.223 752.498 256.028 752.982 257.009C753.227 257.507 753.495 258.051 753.786 258.638C755.565 262.113 758.159 267.113 761.396 273.13C767.854 285.114 776.701 300.945 787.175 316.301C792.345 324.115 798.209 331.488 804.26 338.522C807.328 341.997 810.514 345.268 813.938 348.285C817.209 351.404 820.683 354.286 824.277 356.794C831.666 361.794 839.361 365.862 848.022 368.083C854.598 369.71 861.497 370.439 868.921 369.964C917.124 426.966 956.581 493.172 986.581 559.615C1024.83 644.228 1045.26 736.537 1043.06 829.455C1040.65 930.798 1006.85 1033.61 961.428 1123.62C926.056 1193.67 874.565 1250.81 808.752 1293.35C749.803 1331.46 685.193 1360.03 621.007 1387.8C597.567 1397.95 571.996 1408.22 545.242 1418.29V276.698C545.242 177.627 570.329 140.347 701.897 128.974V80.4368C572.522 80.4368 494.319 128.974 494.319 276.698V1436.69ZM494.319 1588.31H424.099V1489.26C436.238 1484.59 448.354 1479.81 460.432 1474.94C471.771 1480.09 483.084 1485.11 494.319 1489.94V1588.31ZM424.099 1459.77C424.809 1459.55 425.519 1459.33 426.229 1459.1L424.099 1458.1V1459.77Z" fill="#C4C4C4"/>
  <path fill-rule="evenodd" clip-rule="evenodd" d="M494.319 1436.69C482.251 1440.88 470.071 1444.99 457.856 1449C446.638 1445.25 435.374 1441.38 424.099 1437.41V276.698C424.099 94.2966 291.844 80.4368 212.054 80.4368V128.974C330.782 136.241 373.172 168.855 373.172 276.698V1418.79C277.092 1382.42 183.831 1340.04 114.35 1300.79C67.384 1274.3 24.8587 1241.83 -10.3105 1200.79C-45.4289 1159.77 -70.7673 1111.18 -91.1231 1061.45C-129.699 967.188 -154.14 869.609 -148.14 767.182C-141.157 647.771 -94.2421 533.495 -28.8697 434.475C-12.1241 409.084 6.04575 383.795 25.8422 359.93C32.9947 360.269 39.6553 359.591 46.0281 358.014C54.6891 355.794 62.3843 351.726 69.7401 346.76C73.3672 344.217 76.8079 341.336 80.1129 338.251C83.4858 335.2 86.7057 331.929 89.7735 328.454C95.8243 321.403 101.689 314.047 106.875 306.233C117.282 290.877 126.18 275.011 132.638 263.028C135.858 257.028 138.468 252.045 140.214 248.536C140.845 247.298 141.35 246.277 141.76 245.451C141.933 245.1 142.09 244.785 142.231 244.502C142.604 243.638 142.79 243.18 142.79 243.18H141.333C140.818 243.231 140.182 243.309 139.423 243.401C138.681 243.492 137.821 243.596 136.841 243.705C132.909 244.231 127.197 245.231 120.401 246.892C106.773 250.163 88.5362 256.197 70.994 265.757C53.5534 275.452 36.52 288.368 25.9778 304.487C20.554 312.369 16.9097 321.132 15.2656 330.268C13.825 337.844 14.1134 345.861 16.1812 354.133C-29.9202 408.948 -68.0896 472.086 -97.6657 535.343C-134.225 613.498 -156.225 698.061 -159.564 784.386C-163.36 883.542 -136.411 978.613 -99.1404 1069.55C-69.1914 1142.69 -26.429 1209.27 34.8417 1260.08C91.3329 1306.9 160.163 1338.93 227.739 1366.25C265.297 1381.4 310.07 1403.11 357.562 1426.13L357.578 1426.14L357.596 1426.15L357.601 1426.15C362.761 1428.66 367.953 1431.17 373.172 1433.7V1474.83C327.021 1487.8 252.345 1511.38 214.971 1517.65C208.243 1518.77 242.921 1554.03 249.378 1552.08C280.248 1542.78 342.065 1519.3 373.172 1508.18V1588.31H212.054V1640.96H706.342V1588.31H545.242V1510.58C580.345 1523.81 653.204 1542.77 683.02 1547.76C689.697 1548.85 710.477 1513.27 703.799 1512.13C667.568 1506.09 587.716 1487.87 545.242 1475.95V1439C627.282 1402.64 705.617 1363.36 774.989 1325.62C865.683 1276.23 933.7 1206.15 978.462 1112.92C1019.89 1026.65 1049.14 931.205 1053.45 835.371C1059.39 702.586 1014.83 572.344 945.734 460.459C925.48 427.678 902.835 395.016 877.751 364.693C879.92 356.218 880.209 348.048 878.768 340.319C877.09 331.217 873.463 322.403 868.073 314.538C857.531 298.453 840.497 285.503 823.057 275.842C805.463 266.249 787.243 260.214 773.616 256.943C766.786 255.248 761.125 254.333 757.209 253.74L756.753 253.692L756.167 253.63L755.521 253.561L755.516 253.56C754.331 253.433 753.361 253.329 752.667 253.282C751.735 253.248 751.193 253.248 751.193 253.248C751.193 253.248 751.413 253.672 751.786 254.604C752.101 255.223 752.498 256.028 752.982 257.009C753.227 257.507 753.495 258.051 753.786 258.638C755.565 262.113 758.159 267.113 761.396 273.13C767.854 285.114 776.701 300.945 787.175 316.301C792.345 324.115 798.209 331.488 804.26 338.522C807.328 341.997 810.514 345.268 813.938 348.285C817.209 351.404 820.683 354.286 824.277 356.794C831.666 361.794 839.361 365.862 848.022 368.083C854.598 369.71 861.497 370.439 868.921 369.964C917.124 426.966 956.581 493.172 986.581 559.615C1024.83 644.228 1045.26 736.537 1043.06 829.455C1040.65 930.798 1006.85 1033.61 961.428 1123.62C926.056 1193.67 874.565 1250.81 808.752 1293.35C749.803 1331.46 685.193 1360.03 621.007 1387.8C597.567 1397.95 571.996 1408.22 545.242 1418.29V276.698C545.242 177.627 570.329 140.347 701.897 128.974V80.4368C572.522 80.4368 494.319 128.974 494.319 276.698V1436.69ZM494.319 1588.31H424.099V1489.26C436.238 1484.59 448.354 1479.81 460.432 1474.94C471.771 1480.09 483.084 1485.11 494.319 1489.94V1588.31ZM424.099 1459.77C424.809 1459.55 425.519 1459.33 426.229 1459.1L424.099 1458.1V1459.77Z" fill="url(#paint1_linear_266_45)"/>
  <path d="M171.241 1675.37H754.525V1728H171.241V1675.37Z" fill="#C4C4C4"/>
  <path d="M171.241 1675.37H754.525V1728H171.241V1675.37Z" fill="url(#paint2_linear_266_45)"/>
  <path d="M220.128 1373.25C229.314 1376.52 237.873 1381.55 247.28 1388.6C241.246 1409.32 223.094 1422.43 201.755 1428.47C180.264 1434.64 155.637 1434.16 133.061 1430.2C110.366 1426.27 89.5359 1418.98 74.4851 1412.52C59.4344 1406.1 50.0785 1400.67 50.0785 1400.67C50.0785 1400.67 59.6374 1396.86 74.2814 1391.99C89.027 1386.96 108.688 1380.77 129.417 1375.67C150.146 1370.67 171.755 1366.92 191.569 1367.86C201.535 1368.25 210.975 1370.01 220.128 1373.25Z" fill="#C4C4C4"/>
  <path d="M220.128 1373.25C229.314 1376.52 237.873 1381.55 247.28 1388.6C241.246 1409.32 223.094 1422.43 201.755 1428.47C180.264 1434.64 155.637 1434.16 133.061 1430.2C110.366 1426.27 89.5359 1418.98 74.4851 1412.52C59.4344 1406.1 50.0785 1400.67 50.0785 1400.67C50.0785 1400.67 59.6374 1396.86 74.2814 1391.99C89.027 1386.96 108.688 1380.77 129.417 1375.67C150.146 1370.67 171.755 1366.92 191.569 1367.86C201.535 1368.25 210.975 1370.01 220.128 1373.25Z" fill="url(#paint3_linear_266_45)"/>
  <path d="M183.989 1296.71C192.057 1314.81 203.751 1332.49 219.107 1344.02C226.785 1349.71 235.293 1354.05 244.497 1355.8C253.632 1357.61 263.48 1357.12 273.005 1353.12C273.531 1331.44 267.599 1314.32 258.344 1299.29C249.039 1284.39 235.836 1271.5 222.226 1260.39C208.582 1249.33 194.667 1240.1 184.125 1233.44C173.616 1226.88 166.43 1223.01 166.43 1223.01C166.43 1223.01 166.532 1225.33 166.887 1229.44C167.277 1233.44 167.972 1239.23 169.107 1246.22C171.43 1260.06 175.904 1278.66 183.989 1296.71Z" fill="#C4C4C4"/>
  <path d="M183.989 1296.71C192.057 1314.81 203.751 1332.49 219.107 1344.02C226.785 1349.71 235.293 1354.05 244.497 1355.8C253.632 1357.61 263.48 1357.12 273.005 1353.12C273.531 1331.44 267.599 1314.32 258.344 1299.29C249.039 1284.39 235.836 1271.5 222.226 1260.39C208.582 1249.33 194.667 1240.1 184.125 1233.44C173.616 1226.88 166.43 1223.01 166.43 1223.01C166.43 1223.01 166.532 1225.33 166.887 1229.44C167.277 1233.44 167.972 1239.23 169.107 1246.22C171.43 1260.06 175.904 1278.66 183.989 1296.71Z" fill="url(#paint4_linear_266_45)"/>
  <path d="M86.9812 1318.75C74.1508 1336.08 55.778 1344.04 35.0324 1345.04C14.3206 1346.04 -8.66211 1340.03 -29.6789 1330.42C-50.6957 1320.92 -69.7638 1307.97 -83.2214 1296.86C-89.0034 1292.13 -93.757 1287.74 -97.3339 1284.44C-97.9406 1283.88 -98.5134 1283.35 -99.0516 1282.86C-102.746 1279.24 -104.729 1277.06 -104.729 1277.06C-104.729 1277.06 -94.4752 1276.87 -78.1363 1276.6C-74.6143 1276.58 -70.8369 1276.54 -66.858 1276.5H-66.7412C-52.7269 1276.35 -36.224 1276.17 -19.5777 1276.63C1.86285 1277.33 23.6762 1278.89 42.371 1284.62C61.0827 1290.38 76.6931 1300.35 86.9812 1318.75Z" fill="#C4C4C4"/>
  <path d="M86.9812 1318.75C74.1508 1336.08 55.778 1344.04 35.0324 1345.04C14.3206 1346.04 -8.66211 1340.03 -29.6789 1330.42C-50.6957 1320.92 -69.7638 1307.97 -83.2214 1296.86C-89.0034 1292.13 -93.757 1287.74 -97.3339 1284.44C-97.9406 1283.88 -98.5134 1283.35 -99.0516 1282.86C-102.746 1279.24 -104.729 1277.06 -104.729 1277.06C-104.729 1277.06 -94.4752 1276.87 -78.1363 1276.6C-74.6143 1276.58 -70.8369 1276.54 -66.858 1276.5H-66.7412C-52.7269 1276.35 -36.224 1276.17 -19.5777 1276.63C1.86285 1277.33 23.6762 1278.89 42.371 1284.62C61.0827 1290.38 76.6931 1300.35 86.9812 1318.75Z" fill="url(#paint5_linear_266_45)"/>
  <path d="M74.4903 1263.23C86.236 1278.13 102.71 1287.96 123.117 1286.92C131.422 1266.99 129.998 1247.99 124.405 1230.51C118.761 1213.11 108.795 1197.11 98.7102 1183.17C88.6086 1169.27 78.2867 1157.41 70.7274 1148.88C67.0155 1144.58 63.8462 1141.17 61.6089 1138.85C59.5072 1136.46 58.1852 1135.21 58.1852 1135.21C58.1852 1135.21 57.4901 1137.36 56.4732 1141.17C55.4393 1145.04 54.304 1150.55 53.2192 1157.29C50.9989 1170.9 50.0326 1189.46 52.8969 1208.97C55.7444 1228.34 62.7277 1248.23 74.4903 1263.23Z" fill="#C4C4C4"/>
  <path d="M74.4903 1263.23C86.236 1278.13 102.71 1287.96 123.117 1286.92C131.422 1266.99 129.998 1247.99 124.405 1230.51C118.761 1213.11 108.795 1197.11 98.7102 1183.17C88.6086 1169.27 78.2867 1157.41 70.7274 1148.88C67.0155 1144.58 63.8462 1141.17 61.6089 1138.85C59.5072 1136.46 58.1852 1135.21 58.1852 1135.21C58.1852 1135.21 57.4901 1137.36 56.4732 1141.17C55.4393 1145.04 54.304 1150.55 53.2192 1157.29C50.9989 1170.9 50.0326 1189.46 52.8969 1208.97C55.7444 1228.34 62.7277 1248.23 74.4903 1263.23Z" fill="url(#paint6_linear_266_45)"/>
  <path d="M-203.546 1107.19C-203.546 1107.19 -194.054 1109.92 -179.325 1114.54C-164.749 1119.21 -145.546 1125.97 -126.834 1134.78C-122.174 1137 -117.563 1139.29 -112.97 1141.83C-108.021 1144.61 -103.224 1147.39 -98.6142 1150.31C-93.9193 1153.09 -89.3092 1155.87 -85.021 1158.82C-84.4685 1159.2 -83.916 1159.57 -83.3644 1159.95C-79.6352 1162.49 -75.9491 1165 -72.5974 1167.72C-56.9195 1179.99 -45.2584 1194.12 -40.4279 1214.85C-57.6821 1227.8 -77.9026 1229.99 -98.7839 1223.29C-119.597 1216.74 -140.817 1201.07 -158.021 1180.62C-160.105 1178.04 -162.207 1175.41 -164.241 1172.77L-167.275 1168.8L-169.648 1165.56C-172.682 1161.36 -175.563 1157.19 -178.258 1153.05C-183.631 1144.83 -188.275 1136.99 -192.054 1130.24C-195.851 1123.48 -198.834 1117.75 -200.783 1113.71C-202.647 1109.65 -203.546 1107.19 -203.546 1107.19Z" fill="#C4C4C4"/>
  <path d="M-203.546 1107.19C-203.546 1107.19 -194.054 1109.92 -179.325 1114.54C-164.749 1119.21 -145.546 1125.97 -126.834 1134.78C-122.174 1137 -117.563 1139.29 -112.97 1141.83C-108.021 1144.61 -103.224 1147.39 -98.6142 1150.31C-93.9193 1153.09 -89.3092 1155.87 -85.021 1158.82C-84.4685 1159.2 -83.916 1159.57 -83.3644 1159.95C-79.6352 1162.49 -75.9491 1165 -72.5974 1167.72C-56.9195 1179.99 -45.2584 1194.12 -40.4279 1214.85C-57.6821 1227.8 -77.9026 1229.99 -98.7839 1223.29C-119.597 1216.74 -140.817 1201.07 -158.021 1180.62C-160.105 1178.04 -162.207 1175.41 -164.241 1172.77L-167.275 1168.8L-169.648 1165.56C-172.682 1161.36 -175.563 1157.19 -178.258 1153.05C-183.631 1144.83 -188.275 1136.99 -192.054 1130.24C-195.851 1123.48 -198.834 1117.75 -200.783 1113.71C-202.647 1109.65 -203.546 1107.19 -203.546 1107.19Z" fill="url(#paint7_linear_266_45)"/>
  <path d="M-35.3996 1151.33C-29.8403 1169.21 -16.976 1183.91 2.66797 1188.45C16.312 1171.74 20.6507 1153.45 21.7863 1136.18C22.7354 1118.89 20.515 1102.52 18.6337 1088.77C18.0066 1082.94 15.6679 1073.08 13.4814 1065.43C11.295 1057.52 8.87094 1050.36 6.63367 1044.41C4.84479 1039.52 3.09015 1035.36 1.74075 1032.16L1.33466 1031.2C1.18506 1030.84 1.04169 1030.5 0.905212 1030.18C-0.34903 1026.73 -1.16272 1024.82 -1.16272 1024.82C-1.16272 1024.82 -2.55249 1026.73 -4.8067 1030.21C-7.14569 1033.79 -9.993 1038.75 -13.2642 1044.97C-19.7556 1057.38 -27.5861 1074.77 -32.9929 1094.04C-34.3827 1098.87 -35.5863 1103.77 -36.6032 1108.81C-37.5185 1113.43 -38.2132 1118.18 -38.6199 1123.04C-38.925 1127.84 -38.7048 1132.6 -38.2641 1137.45C-37.7895 1142.2 -36.7047 1146.79 -35.3996 1151.33Z" fill="#C4C4C4"/>
  <path d="M-35.3996 1151.33C-29.8403 1169.21 -16.976 1183.91 2.66797 1188.45C16.312 1171.74 20.6507 1153.45 21.7863 1136.18C22.7354 1118.89 20.515 1102.52 18.6337 1088.77C18.0066 1082.94 15.6679 1073.08 13.4814 1065.43C11.295 1057.52 8.87094 1050.36 6.63367 1044.41C4.84479 1039.52 3.09015 1035.36 1.74075 1032.16L1.33466 1031.2C1.18506 1030.84 1.04169 1030.5 0.905212 1030.18C-0.34903 1026.73 -1.16272 1024.82 -1.16272 1024.82C-1.16272 1024.82 -2.55249 1026.73 -4.8067 1030.21C-7.14569 1033.79 -9.993 1038.75 -13.2642 1044.97C-19.7556 1057.38 -27.5861 1074.77 -32.9929 1094.04C-34.3827 1098.87 -35.5863 1103.77 -36.6032 1108.81C-37.5185 1113.43 -38.2132 1118.18 -38.6199 1123.04C-38.925 1127.84 -38.7048 1132.6 -38.2641 1137.45C-37.7895 1142.2 -36.7047 1146.79 -35.3996 1151.33Z" fill="url(#paint8_linear_266_45)"/>
  <path d="M-190.482 1053.15C-194.499 1049.75 -198.499 1046.07 -201.872 1041.9C-208.855 1033.78 -215.245 1024.64 -220.956 1015.39C-232.872 997.016 -240.007 976.863 -245.143 961.828C-247.685 954.319 -249.567 948.031 -250.804 943.556C-251.906 939.082 -252.295 936.505 -252.295 936.505C-252.295 936.505 -243.6 941.149 -229.787 948.523C-216.278 956.048 -198.601 966.337 -181.821 978.388C-164.516 990.27 -147.398 1003.64 -136.313 1019.07C-135.764 1019.87 -135.209 1020.66 -134.653 1021.46C-132.499 1024.55 -130.342 1027.65 -128.55 1030.88C-126.245 1034.92 -124.398 1039.12 -123.008 1043.46C-120.296 1052.24 -119.517 1061.68 -121.262 1072C-141.94 1078.05 -160.923 1073.41 -178.059 1062.42C-182.33 1059.71 -186.482 1056.56 -190.482 1053.15Z" fill="#C4C4C4"/>
  <path d="M-190.482 1053.15C-194.499 1049.75 -198.499 1046.07 -201.872 1041.9C-208.855 1033.78 -215.245 1024.64 -220.956 1015.39C-232.872 997.016 -240.007 976.863 -245.143 961.828C-247.685 954.319 -249.567 948.031 -250.804 943.556C-251.906 939.082 -252.295 936.505 -252.295 936.505C-252.295 936.505 -243.6 941.149 -229.787 948.523C-216.278 956.048 -198.601 966.337 -181.821 978.388C-164.516 990.27 -147.398 1003.64 -136.313 1019.07C-135.764 1019.87 -135.209 1020.66 -134.653 1021.46C-132.499 1024.55 -130.342 1027.65 -128.55 1030.88C-126.245 1034.92 -124.398 1039.12 -123.008 1043.46C-120.296 1052.24 -119.517 1061.68 -121.262 1072C-141.94 1078.05 -160.923 1073.41 -178.059 1062.42C-182.33 1059.71 -186.482 1056.56 -190.482 1053.15Z" fill="url(#paint9_linear_266_45)"/>
  <path d="M-90.0906 1033.81C-86.0737 1041.91 -80.1582 1049.13 -71.9379 1054.89C-53.2092 1044.13 -42.4806 1028.04 -36.8026 1010.57C-35.345 1006.19 -34.2602 1001.72 -33.4297 997.194C-32.989 994.939 -32.6499 992.685 -32.3957 990.414C-32.2118 989.232 -32.037 988.041 -31.8618 986.847C-31.698 985.731 -31.5338 984.612 -31.3617 983.498C-30.1753 974.26 -29.8706 965.023 -30.1757 956.124C-31.3282 938.446 -32.4298 921.767 -34.684 909.682C-35.5096 904.823 -36.3999 900.678 -37.0962 897.435C-37.2719 896.617 -37.4353 895.856 -37.5821 895.156C-38.1584 891.715 -38.5654 889.766 -38.5654 889.766C-38.5654 889.766 -40.2943 891.36 -43.1756 894.275C-46.1586 897.224 -49.8874 901.428 -54.2772 906.818C-63.0568 917.581 -73.9888 932.937 -82.904 950.785C-91.2938 968.498 -96.7684 988.464 -96.6497 1007.4C-96.7175 1012.16 -95.9209 1016.7 -94.8192 1021.11C-93.6667 1025.53 -92.1245 1029.77 -90.0906 1033.81Z" fill="#C4C4C4"/>
  <path d="M-90.0906 1033.81C-86.0737 1041.91 -80.1582 1049.13 -71.9379 1054.89C-53.2092 1044.13 -42.4806 1028.04 -36.8026 1010.57C-35.345 1006.19 -34.2602 1001.72 -33.4297 997.194C-32.989 994.939 -32.6499 992.685 -32.3957 990.414C-32.2118 989.232 -32.037 988.041 -31.8618 986.847C-31.698 985.731 -31.5338 984.612 -31.3617 983.498C-30.1753 974.26 -29.8706 965.023 -30.1757 956.124C-31.3282 938.446 -32.4298 921.767 -34.684 909.682C-35.5096 904.823 -36.3999 900.678 -37.0962 897.435C-37.2719 896.617 -37.4353 895.856 -37.5821 895.156C-38.1584 891.715 -38.5654 889.766 -38.5654 889.766C-38.5654 889.766 -40.2943 891.36 -43.1756 894.275C-46.1586 897.224 -49.8874 901.428 -54.2772 906.818C-63.0568 917.581 -73.9888 932.937 -82.904 950.785C-91.2938 968.498 -96.7684 988.464 -96.6497 1007.4C-96.7175 1012.16 -95.9209 1016.7 -94.8192 1021.11C-93.6667 1025.53 -92.1245 1029.77 -90.0906 1033.81Z" fill="url(#paint10_linear_266_45)"/>
  <path d="M-229.309 885.214C-232.479 880.977 -235.224 876.366 -237.835 871.57C-243.14 861.993 -247.597 851.671 -251.411 841.23C-253.428 836.026 -254.733 830.704 -255.987 825.466C-257.224 820.246 -258.309 815.076 -259.292 810.076C-261.106 800.076 -262.75 790.719 -263.309 782.668C-264.258 766.549 -263.953 755.854 -263.953 755.854C-263.953 755.854 -256.106 762.549 -245.038 773.041C-242.393 775.628 -239.464 778.434 -236.344 781.424C-226.731 790.636 -215.299 801.593 -204.716 813.263C-201.225 817.094 -197.784 821.043 -194.513 825.077C-191.309 829.128 -188.038 833.23 -184.784 837.298C-178.411 845.569 -172.937 854.01 -168.988 862.688C-166.954 866.976 -165.462 871.383 -164.123 875.79C-162.649 880.197 -161.632 884.655 -161.123 889.197C-160.106 898.266 -161.157 907.605 -164.852 917.402C-186.276 919.453 -204.055 911.249 -218.852 896.91C-222.513 893.35 -226.021 889.418 -229.309 885.214Z" fill="#C4C4C4"/>
  <path d="M-229.309 885.214C-232.479 880.977 -235.224 876.366 -237.835 871.57C-243.14 861.993 -247.597 851.671 -251.411 841.23C-253.428 836.026 -254.733 830.704 -255.987 825.466C-257.224 820.246 -258.309 815.076 -259.292 810.076C-261.106 800.076 -262.75 790.719 -263.309 782.668C-264.258 766.549 -263.953 755.854 -263.953 755.854C-263.953 755.854 -256.106 762.549 -245.038 773.041C-242.393 775.628 -239.464 778.434 -236.344 781.424C-226.731 790.636 -215.299 801.593 -204.716 813.263C-201.225 817.094 -197.784 821.043 -194.513 825.077C-191.309 829.128 -188.038 833.23 -184.784 837.298C-178.411 845.569 -172.937 854.01 -168.988 862.688C-166.954 866.976 -165.462 871.383 -164.123 875.79C-162.649 880.197 -161.632 884.655 -161.123 889.197C-160.106 898.266 -161.157 907.605 -164.852 917.402C-186.276 919.453 -204.055 911.249 -218.852 896.91C-222.513 893.35 -226.021 889.418 -229.309 885.214Z" fill="url(#paint11_linear_266_45)"/>
  <path d="M-113.752 905.903C-93.2943 898.852 -79.65 885.275 -70.667 869.715C-68.4128 865.783 -66.4977 861.766 -64.7689 857.63C-62.7689 853.461 -61.0572 849.257 -59.5318 844.986C-56.5318 836.477 -54.4132 827.799 -52.9555 819.358C-52.6398 817.691 -52.318 816.034 -51.9986 814.388C-50.7063 807.731 -49.452 801.269 -48.786 795.221C-48.3284 791.373 -47.9723 787.763 -47.735 784.322C-47.6884 783.602 -47.6464 782.891 -47.605 782.189C-47.4502 779.567 -47.3031 777.075 -46.9555 774.763C-45.6844 763.017 -45.8367 755.271 -45.8367 755.271C-45.8367 755.271 -53.7692 759.644 -65.0911 767.78C-67.9047 769.831 -70.9553 772.118 -74.1248 774.593C-77.3451 777.135 -80.6163 779.898 -83.701 782.865C-90.023 788.831 -96.5313 795.679 -102.684 803.255C-105.752 807.069 -108.718 811.002 -111.548 815.137C-112.955 817.188 -114.328 819.307 -115.599 821.392C-116.768 823.544 -117.904 825.697 -118.955 827.883C-123.209 836.595 -126.48 845.765 -128.26 854.969C-129.09 859.545 -129.735 864.139 -129.599 868.647C-129.345 873.156 -128.65 877.614 -127.48 881.919C-125.091 890.614 -120.684 898.784 -113.752 905.903Z" fill="#C4C4C4"/>
  <path d="M-113.752 905.903C-93.2943 898.852 -79.65 885.275 -70.667 869.715C-68.4128 865.783 -66.4977 861.766 -64.7689 857.63C-62.7689 853.461 -61.0572 849.257 -59.5318 844.986C-56.5318 836.477 -54.4132 827.799 -52.9555 819.358C-52.6398 817.691 -52.318 816.034 -51.9986 814.388C-50.7063 807.731 -49.452 801.269 -48.786 795.221C-48.3284 791.373 -47.9723 787.763 -47.735 784.322C-47.6884 783.602 -47.6464 782.891 -47.605 782.189C-47.4502 779.567 -47.3031 777.075 -46.9555 774.763C-45.6844 763.017 -45.8367 755.271 -45.8367 755.271C-45.8367 755.271 -53.7692 759.644 -65.0911 767.78C-67.9047 769.831 -70.9553 772.118 -74.1248 774.593C-77.3451 777.135 -80.6163 779.898 -83.701 782.865C-90.023 788.831 -96.5313 795.679 -102.684 803.255C-105.752 807.069 -108.718 811.002 -111.548 815.137C-112.955 817.188 -114.328 819.307 -115.599 821.392C-116.768 823.544 -117.904 825.697 -118.955 827.883C-123.209 836.595 -126.48 845.765 -128.26 854.969C-129.09 859.545 -129.735 864.139 -129.599 868.647C-129.345 873.156 -128.65 877.614 -127.48 881.919C-125.091 890.614 -120.684 898.784 -113.752 905.903Z" fill="url(#paint12_linear_266_45)"/>
  <path d="M-203.036 620.782C-198.036 629.087 -192.85 638.088 -188.07 647.291C-187.172 649.103 -186.259 650.929 -185.339 652.766L-185.337 652.771L-185.334 652.778C-181.584 660.27 -177.742 667.947 -174.545 675.581C-170.494 685.089 -167.646 694.547 -165.799 703.853C-163.68 713.192 -163.003 722.396 -164.46 731.362C-165.088 735.786 -166.545 740.227 -168.053 744.634C-169.596 749.024 -171.697 753.363 -174.477 757.702C-195.714 754.685 -212.104 742.532 -222.273 724.989C-227.51 716.328 -231.595 706.294 -234.782 695.666C-237.629 685.072 -239.036 673.885 -239.985 662.766C-240.46 657.207 -240.798 651.664 -240.832 646.24C-240.68 640.833 -240.392 635.613 -239.985 630.511C-239.273 620.341 -238.138 610.951 -236.934 602.934C-233.731 587.154 -230.697 576.984 -230.697 576.984C-230.697 576.984 -224.849 585.391 -216.782 598.34C-212.866 604.764 -208.223 612.375 -203.036 620.782Z" fill="#C4C4C4"/>
  <path d="M-203.036 620.782C-198.036 629.087 -192.85 638.088 -188.07 647.291C-187.172 649.103 -186.259 650.929 -185.339 652.766L-185.337 652.771L-185.334 652.778C-181.584 660.27 -177.742 667.947 -174.545 675.581C-170.494 685.089 -167.646 694.547 -165.799 703.853C-163.68 713.192 -163.003 722.396 -164.46 731.362C-165.088 735.786 -166.545 740.227 -168.053 744.634C-169.596 749.024 -171.697 753.363 -174.477 757.702C-195.714 754.685 -212.104 742.532 -222.273 724.989C-227.51 716.328 -231.595 706.294 -234.782 695.666C-237.629 685.072 -239.036 673.885 -239.985 662.766C-240.46 657.207 -240.798 651.664 -240.832 646.24C-240.68 640.833 -240.392 635.613 -239.985 630.511C-239.273 620.341 -238.138 610.951 -236.934 602.934C-233.731 587.154 -230.697 576.984 -230.697 576.984C-230.697 576.984 -224.849 585.391 -216.782 598.34C-212.866 604.764 -208.223 612.375 -203.036 620.782Z" fill="url(#paint13_linear_266_45)"/>
  <path d="M-72.4658 729.018C-66.0252 722.73 -60.6013 715.645 -56.0081 708.288C-50.9573 700.932 -46.5169 693.39 -42.9576 685.813C-41.9559 683.782 -41.0815 681.757 -40.2159 679.751C-39.4706 678.024 -38.7315 676.312 -37.9238 674.626C-36.178 670.982 -34.5678 667.405 -33.161 663.931C-30.9412 658.629 -29.2242 653.579 -27.6771 649.029C-27.216 647.672 -26.77 646.361 -26.3303 645.1C-22.11 634.167 -20.2625 626.794 -20.2625 626.794C-20.2625 626.794 -29.0423 628.913 -42.0591 633.811C-55.415 638.608 -71.4491 646.727 -87.3981 658.049L-87.4592 658.094C-91.3393 660.928 -95.4501 663.931 -98.9569 667.219C-102.482 670.456 -105.889 673.948 -109.076 677.542C-115.449 684.83 -121.228 692.745 -125.059 701.119C-128.618 709.56 -130.669 718.407 -130.635 727.272C-130.567 731.679 -130.245 736.12 -128.821 740.51C-127.397 744.917 -125.363 749.256 -122.685 753.494C-101.143 751.426 -85.6691 741.561 -72.4658 729.018Z" fill="#C4C4C4"/>
  <path d="M-72.4658 729.018C-66.0252 722.73 -60.6013 715.645 -56.0081 708.288C-50.9573 700.932 -46.5169 693.39 -42.9576 685.813C-41.9559 683.782 -41.0815 681.757 -40.2159 679.751C-39.4706 678.024 -38.7315 676.312 -37.9238 674.626C-36.178 670.982 -34.5678 667.405 -33.161 663.931C-30.9412 658.629 -29.2242 653.579 -27.6771 649.029C-27.216 647.672 -26.77 646.361 -26.3303 645.1C-22.11 634.167 -20.2625 626.794 -20.2625 626.794C-20.2625 626.794 -29.0423 628.913 -42.0591 633.811C-55.415 638.608 -71.4491 646.727 -87.3981 658.049L-87.4592 658.094C-91.3393 660.928 -95.4501 663.931 -98.9569 667.219C-102.482 670.456 -105.889 673.948 -109.076 677.542C-115.449 684.83 -121.228 692.745 -125.059 701.119C-128.618 709.56 -130.669 718.407 -130.635 727.272C-130.567 731.679 -130.245 736.12 -128.821 740.51C-127.397 744.917 -125.363 749.256 -122.685 753.494C-101.143 751.426 -85.6691 741.561 -72.4658 729.018Z" fill="url(#paint14_linear_266_45)"/>
  <path d="M-128.255 578.965C-130.035 583.067 -132.323 586.999 -135.187 590.745C-137.78 594.593 -140.899 598.203 -144.746 601.627C-154.695 597.457 -162.729 591.424 -169.085 583.983C-175.56 576.508 -179.594 567.795 -182.594 558.032C-184.051 553.168 -185.136 548.083 -185.916 542.811C-186.712 537.591 -187.289 532.082 -187.153 526.726C-187.119 515.912 -185.984 504.726 -184.238 493.827C-179.916 472.402 -173.068 451.978 -166.255 437.706C-163.001 430.485 -160.102 424.587 -158.001 420.519C-155.797 416.485 -154.407 414.298 -154.407 414.298C-154.407 414.298 -150.899 423.638 -145.882 438.231C-140.848 452.825 -135.221 471.961 -129.984 492.318C-127.407 502.522 -125.645 512.607 -124.103 522.777C-122.543 532.963 -121.848 542.896 -122.56 552.27C-122.624 552.914 -122.686 553.558 -122.747 554.202L-122.749 554.219C-123.132 558.214 -123.514 562.196 -124.272 566.015C-125.154 570.524 -126.475 574.829 -128.255 578.965Z" fill="#C4C4C4"/>
  <path d="M-128.255 578.965C-130.035 583.067 -132.323 586.999 -135.187 590.745C-137.78 594.593 -140.899 598.203 -144.746 601.627C-154.695 597.457 -162.729 591.424 -169.085 583.983C-175.56 576.508 -179.594 567.795 -182.594 558.032C-184.051 553.168 -185.136 548.083 -185.916 542.811C-186.712 537.591 -187.289 532.082 -187.153 526.726C-187.119 515.912 -185.984 504.726 -184.238 493.827C-179.916 472.402 -173.068 451.978 -166.255 437.706C-163.001 430.485 -160.102 424.587 -158.001 420.519C-155.797 416.485 -154.407 414.298 -154.407 414.298C-154.407 414.298 -150.899 423.638 -145.882 438.231C-140.848 452.825 -135.221 471.961 -129.984 492.318C-127.407 502.522 -125.645 512.607 -124.103 522.777C-122.543 532.963 -121.848 542.896 -122.56 552.27C-122.624 552.914 -122.686 553.558 -122.747 554.202L-122.749 554.219C-123.132 558.214 -123.514 562.196 -124.272 566.015C-125.154 570.524 -126.475 574.829 -128.255 578.965Z" fill="url(#paint15_linear_266_45)"/>
  <path d="M34.2088 513.289C36.0393 510.408 37.0055 508.746 37.0055 508.746C37.0055 508.746 34.7004 508.747 30.6497 508.916C26.531 509.052 20.9379 509.476 14.1413 510.34C7.32779 511.205 -0.655518 512.492 -9.28258 514.441C-13.5368 515.442 -18.1131 516.526 -22.5199 517.882C-26.8927 519.306 -31.3501 520.832 -35.7908 522.645C-44.6721 526.222 -53.8585 530.493 -61.8754 535.849C-69.7736 541.239 -77.0445 547.511 -83.0275 554.528C-86.0783 558.003 -88.4004 561.85 -90.4173 565.783C-92.4173 569.749 -93.9935 573.885 -95.0782 578.122C-96.1799 582.393 -96.7566 586.8 -96.7396 591.292C-96.5023 595.886 -95.6375 600.563 -94.1291 605.326C-83.519 607.089 -73.7056 606.614 -64.7057 604.597C-55.7905 602.58 -47.0448 599.241 -39.3499 594.767C-35.4855 592.58 -31.7905 590.139 -28.299 587.444C-26.5398 586.192 -24.8655 584.772 -23.1908 583.351L-23.1809 583.342C-21.469 581.986 -19.7231 580.563 -18.0452 579.139C-11.3164 573.342 -5.35004 567.02 -0.0280457 560.596C5.68375 554.308 10.8023 547.951 15.0905 541.849C15.9679 540.643 16.823 539.392 17.6471 538.187L17.6509 538.181L17.6545 538.176L18.226 537.341C18.6679 536.747 19.0957 536.164 19.5186 535.589C20.1336 534.751 20.7391 533.927 21.3615 533.103C23.3445 530.324 25.1917 527.713 26.8019 525.255C29.7075 520.912 31.9786 517.066 33.6771 514.189L34.2088 513.289Z" fill="#C4C4C4"/>
  <path d="M34.2088 513.289C36.0393 510.408 37.0055 508.746 37.0055 508.746C37.0055 508.746 34.7004 508.747 30.6497 508.916C26.531 509.052 20.9379 509.476 14.1413 510.34C7.32779 511.205 -0.655518 512.492 -9.28258 514.441C-13.5368 515.442 -18.1131 516.526 -22.5199 517.882C-26.8927 519.306 -31.3501 520.832 -35.7908 522.645C-44.6721 526.222 -53.8585 530.493 -61.8754 535.849C-69.7736 541.239 -77.0445 547.511 -83.0275 554.528C-86.0783 558.003 -88.4004 561.85 -90.4173 565.783C-92.4173 569.749 -93.9935 573.885 -95.0782 578.122C-96.1799 582.393 -96.7566 586.8 -96.7396 591.292C-96.5023 595.886 -95.6375 600.563 -94.1291 605.326C-83.519 607.089 -73.7056 606.614 -64.7057 604.597C-55.7905 602.58 -47.0448 599.241 -39.3499 594.767C-35.4855 592.58 -31.7905 590.139 -28.299 587.444C-26.5398 586.192 -24.8655 584.772 -23.1908 583.351L-23.1809 583.342C-21.469 581.986 -19.7231 580.563 -18.0452 579.139C-11.3164 573.342 -5.35004 567.02 -0.0280457 560.596C5.68375 554.308 10.8023 547.951 15.0905 541.849C15.9679 540.643 16.823 539.392 17.6471 538.187L17.6509 538.181L17.6545 538.176L18.226 537.341C18.6679 536.747 19.0957 536.164 19.5186 535.589C20.1336 534.751 20.7391 533.927 21.3615 533.103C23.3445 530.324 25.1917 527.713 26.8019 525.255C29.7075 520.912 31.9786 517.066 33.6771 514.189L34.2088 513.289Z" fill="url(#paint16_linear_266_45)"/>
  <path d="M-55.6836 441.289C-60.9547 448.51 -67.802 454.679 -76.9883 459.307C-94.1747 446.391 -102.107 428.288 -103.378 408.084C-103.87 398.084 -102.768 387.592 -100.547 376.999C-98.2421 366.507 -94.4964 356.218 -90.3948 346.184C-86.1745 336.251 -80.9715 327.014 -76.0563 318.505C-71.4109 310.51 -66.397 303.604 -62.0449 297.61L-61.1069 296.318C-56.5476 289.996 -52.3781 285.131 -49.412 281.758C-46.429 278.402 -44.7175 276.453 -44.7175 276.453C-44.7175 276.453 -43.0735 286.453 -41.5142 301.386C-40.6498 308.962 -39.7175 317.793 -39.0056 327.302C-38.6497 332.031 -38.3613 336.895 -38.1749 341.896C-37.8868 346.93 -37.6496 352.116 -37.5309 357.286C-37.3276 377.846 -38.2256 399.101 -43.7849 416.949C-46.3442 426.034 -50.1413 434.306 -55.6836 441.289Z" fill="#C4C4C4"/>
  <path d="M-55.6836 441.289C-60.9547 448.51 -67.802 454.679 -76.9883 459.307C-94.1747 446.391 -102.107 428.288 -103.378 408.084C-103.87 398.084 -102.768 387.592 -100.547 376.999C-98.2421 366.507 -94.4964 356.218 -90.3948 346.184C-86.1745 336.251 -80.9715 327.014 -76.0563 318.505C-71.4109 310.51 -66.397 303.604 -62.0449 297.61L-61.1069 296.318C-56.5476 289.996 -52.3781 285.131 -49.412 281.758C-46.429 278.402 -44.7175 276.453 -44.7175 276.453C-44.7175 276.453 -43.0735 286.453 -41.5142 301.386C-40.6498 308.962 -39.7175 317.793 -39.0056 327.302C-38.6497 332.031 -38.3613 336.895 -38.1749 341.896C-37.8868 346.93 -37.6496 352.116 -37.5309 357.286C-37.3276 377.846 -38.2256 399.101 -43.7849 416.949C-46.3442 426.034 -50.1413 434.306 -55.6836 441.289Z" fill="url(#paint17_linear_266_45)"/>
  <path d="M73.0788 448.475C79.9601 443.441 86.5531 438.339 92.1971 433.288C97.9428 428.254 103.231 423.593 107.435 419.423C109.681 417.121 111.766 415.07 113.587 413.279C115.144 411.747 116.512 410.401 117.621 409.253C120.01 406.778 121.282 405.321 121.282 405.321C121.282 405.321 112.35 403.338 98.4175 401.948C91.5192 401.287 83.4853 400.948 74.6548 400.982C65.8244 401.016 56.2653 401.609 46.8416 403.134C27.6214 405.948 8.31638 412.474 -6.42929 423.423C-13.5818 429.051 -19.6323 435.678 -23.8526 443.356C-27.8187 451.17 -29.8358 460.136 -29.3613 469.933C-9.48004 478.612 9.23199 477.849 26.3505 472.882C35.0623 470.425 43.2824 466.866 50.9434 462.56C58.7908 458.374 66.2992 453.577 73.0788 448.475Z" fill="#C4C4C4"/>
  <path d="M73.0788 448.475C79.9601 443.441 86.5531 438.339 92.1971 433.288C97.9428 428.254 103.231 423.593 107.435 419.423C109.681 417.121 111.766 415.07 113.587 413.279C115.144 411.747 116.512 410.401 117.621 409.253C120.01 406.778 121.282 405.321 121.282 405.321C121.282 405.321 112.35 403.338 98.4175 401.948C91.5192 401.287 83.4853 400.948 74.6548 400.982C65.8244 401.016 56.2653 401.609 46.8416 403.134C27.6214 405.948 8.31638 412.474 -6.42929 423.423C-13.5818 429.051 -19.6323 435.678 -23.8526 443.356C-27.8187 451.17 -29.8358 460.136 -29.3613 469.933C-9.48004 478.612 9.23199 477.849 26.3505 472.882C35.0623 470.425 43.2824 466.866 50.9434 462.56C58.7908 458.374 66.2992 453.577 73.0788 448.475Z" fill="url(#paint18_linear_266_45)"/>
  <path d="M760.938 1440.21C783.649 1436.35 804.463 1429.06 819.514 1422.6C834.565 1416.15 843.921 1410.76 843.921 1410.76C843.921 1410.76 834.344 1406.94 819.667 1402.04C804.938 1397.04 785.294 1390.82 764.548 1385.72C743.786 1380.72 722.244 1377.01 702.413 1377.91C692.413 1378.3 682.99 1380.03 673.837 1383.26C664.651 1386.57 656.091 1391.57 646.684 1398.65C652.735 1419.35 670.905 1432.45 692.244 1438.49C713.701 1444.67 738.345 1444.18 760.938 1440.21Z" fill="#C4C4C4"/>
  <path d="M760.938 1440.21C783.649 1436.35 804.463 1429.06 819.514 1422.6C834.565 1416.15 843.921 1410.76 843.921 1410.76C843.921 1410.76 834.344 1406.94 819.667 1402.04C804.938 1397.04 785.294 1390.82 764.548 1385.72C743.786 1380.72 722.244 1377.01 702.413 1377.91C692.413 1378.3 682.99 1380.03 673.837 1383.26C664.651 1386.57 656.091 1391.57 646.684 1398.65C652.735 1419.35 670.905 1432.45 692.244 1438.49C713.701 1444.67 738.345 1444.18 760.938 1440.21Z" fill="url(#paint19_linear_266_45)"/>
  <path d="M674.886 1354.13C667.208 1359.83 658.683 1364.13 649.514 1365.88C640.361 1367.69 630.48 1367.23 621.022 1363.18C620.446 1341.52 626.361 1324.42 635.615 1309.39C644.954 1294.49 658.158 1281.57 671.785 1270.49C685.412 1259.43 699.344 1250.16 709.852 1243.54C720.344 1236.96 727.546 1233.11 727.546 1233.11C727.546 1233.11 727.462 1235.47 727.106 1239.54C726.683 1243.54 726.021 1249.33 724.886 1256.28C722.53 1270.15 718.089 1288.76 709.988 1306.83C701.954 1324.89 690.225 1342.54 674.886 1354.13Z" fill="#C4C4C4"/>
  <path d="M674.886 1354.13C667.208 1359.83 658.683 1364.13 649.514 1365.88C640.361 1367.69 630.48 1367.23 621.022 1363.18C620.446 1341.52 626.361 1324.42 635.615 1309.39C644.954 1294.49 658.158 1281.57 671.785 1270.49C685.412 1259.43 699.344 1250.16 709.852 1243.54C720.344 1236.96 727.546 1233.11 727.546 1233.11C727.546 1233.11 727.462 1235.47 727.106 1239.54C726.683 1243.54 726.021 1249.33 724.886 1256.28C722.53 1270.15 718.089 1288.76 709.988 1306.83C701.954 1324.89 690.225 1342.54 674.886 1354.13Z" fill="url(#paint20_linear_266_45)"/>
  <path d="M913.577 1286.76C892.119 1287.45 870.289 1288.98 851.645 1294.71C832.916 1300.51 817.289 1310.47 807.018 1328.81C819.849 1346.15 838.222 1354.17 858.967 1355.13C879.696 1356.13 902.628 1350.1 923.644 1340.57C944.678 1331.03 963.746 1318.1 977.186 1306.95C983.587 1301.81 988.758 1296.97 992.44 1293.52L993.051 1292.95C996.729 1289.34 998.745 1287.18 998.745 1287.18C998.745 1287.18 988.458 1286.98 972.102 1286.72C969.031 1286.7 965.762 1286.66 962.332 1286.62H962.285C947.967 1286.45 930.843 1286.25 913.577 1286.76Z" fill="#C4C4C4"/>
  <path d="M913.577 1286.76C892.119 1287.45 870.289 1288.98 851.645 1294.71C832.916 1300.51 817.289 1310.47 807.018 1328.81C819.849 1346.15 838.222 1354.17 858.967 1355.13C879.696 1356.13 902.628 1350.1 923.644 1340.57C944.678 1331.03 963.746 1318.1 977.186 1306.95C983.587 1301.81 988.758 1296.97 992.44 1293.52L993.051 1292.95C996.729 1289.34 998.745 1287.18 998.745 1287.18C998.745 1287.18 988.458 1286.98 972.102 1286.72C969.031 1286.7 965.762 1286.66 962.332 1286.62H962.285C947.967 1286.45 930.843 1286.25 913.577 1286.76Z" fill="url(#paint21_linear_266_45)"/>
  <path d="M819.516 1273.24C807.787 1288.19 791.295 1298.03 770.905 1296.94C762.583 1277.06 764.041 1258.06 769.6 1240.57C775.245 1223.12 785.21 1207.16 795.278 1193.23C805.38 1179.33 815.702 1167.48 823.278 1158.9C826.973 1154.63 830.126 1151.22 832.38 1148.87C834.515 1146.51 835.803 1145.26 835.803 1145.26C835.803 1145.26 836.481 1147.38 837.498 1151.22C838.549 1155.12 839.685 1160.56 840.752 1167.34C843.007 1180.92 843.99 1199.56 841.091 1219.02C838.261 1238.41 831.261 1258.31 819.516 1273.24Z" fill="#C4C4C4"/>
  <path d="M819.516 1273.24C807.787 1288.19 791.295 1298.03 770.905 1296.94C762.583 1277.06 764.041 1258.06 769.6 1240.57C775.245 1223.12 785.21 1207.16 795.278 1193.23C805.38 1179.33 815.702 1167.48 823.278 1158.9C826.973 1154.63 830.126 1151.22 832.38 1148.87C834.515 1146.51 835.803 1145.26 835.803 1145.26C835.803 1145.26 836.481 1147.38 837.498 1151.22C838.549 1155.12 839.685 1160.56 840.752 1167.34C843.007 1180.92 843.99 1199.56 841.091 1219.02C838.261 1238.41 831.261 1258.31 819.516 1273.24Z" fill="url(#paint22_linear_266_45)"/>
  <path d="M1052.03 1190.7C1054.15 1188.12 1056.25 1185.46 1058.28 1182.85L1061.28 1178.85L1063.66 1175.65C1066.71 1171.44 1069.57 1167.24 1072.27 1163.14C1077.62 1154.97 1082.27 1147.12 1086.08 1140.36C1089.86 1133.58 1092.79 1127.85 1094.76 1123.83C1096.67 1119.76 1097.56 1117.27 1097.56 1117.27C1097.56 1117.27 1088.05 1120.05 1073.34 1124.63C1058.76 1129.29 1039.54 1136.09 1020.86 1144.85C1016.18 1147.07 1011.57 1149.36 1006.98 1151.9C1002.06 1154.68 997.252 1157.49 992.642 1160.34C991.92 1160.78 991.2 1161.22 990.481 1161.66C986.558 1164.04 982.689 1166.4 979.065 1168.92C978.594 1169.24 978.123 1169.56 977.653 1169.87C973.822 1172.46 970.022 1175.03 966.642 1177.82C950.913 1190.07 939.269 1204.17 934.438 1224.92C951.709 1237.87 971.947 1240.09 992.777 1233.36C1013.64 1226.82 1034.86 1211.16 1052.03 1190.7Z" fill="#C4C4C4"/>
  <path d="M1052.03 1190.7C1054.15 1188.12 1056.25 1185.46 1058.28 1182.85L1061.28 1178.85L1063.66 1175.65C1066.71 1171.44 1069.57 1167.24 1072.27 1163.14C1077.62 1154.97 1082.27 1147.12 1086.08 1140.36C1089.86 1133.58 1092.79 1127.85 1094.76 1123.83C1096.67 1119.76 1097.56 1117.27 1097.56 1117.27C1097.56 1117.27 1088.05 1120.05 1073.34 1124.63C1058.76 1129.29 1039.54 1136.09 1020.86 1144.85C1016.18 1147.07 1011.57 1149.36 1006.98 1151.9C1002.06 1154.68 997.252 1157.49 992.642 1160.34C991.92 1160.78 991.2 1161.22 990.481 1161.66C986.558 1164.04 982.689 1166.4 979.065 1168.92C978.594 1169.24 978.123 1169.56 977.653 1169.87C973.822 1172.46 970.022 1175.03 966.642 1177.82C950.913 1190.07 939.269 1204.17 934.438 1224.92C951.709 1237.87 971.947 1240.09 992.777 1233.36C1013.64 1226.82 1034.86 1211.16 1052.03 1190.7Z" fill="url(#paint23_linear_266_45)"/>
  <path d="M907.222 1055.03C913.747 1067.44 921.595 1084.81 927.001 1104.05C928.34 1108.88 929.561 1113.85 930.578 1118.85C931.527 1123.49 932.222 1128.26 932.612 1133.09C932.9 1137.93 932.679 1142.7 932.29 1147.53C931.832 1152.29 930.68 1156.88 929.391 1161.39C923.849 1179.29 910.967 1193.95 891.34 1198.53C877.696 1181.85 873.324 1163.54 872.205 1146.29C871.275 1129.28 873.42 1113.2 875.229 1099.65L875.341 1098.81C875.951 1092.98 878.341 1083.19 880.476 1075.51C882.697 1067.59 885.103 1060.47 887.323 1054.49C889.39 1048.95 891.326 1044.38 892.745 1041.03L893.087 1040.22C894.358 1036.79 895.137 1034.88 895.137 1034.88C895.137 1034.88 896.527 1036.83 898.765 1040.3C901.12 1043.85 903.951 1048.78 907.222 1055.03Z" fill="#C4C4C4"/>
  <path d="M907.222 1055.03C913.747 1067.44 921.595 1084.81 927.001 1104.05C928.34 1108.88 929.561 1113.85 930.578 1118.85C931.527 1123.49 932.222 1128.26 932.612 1133.09C932.9 1137.93 932.679 1142.7 932.29 1147.53C931.832 1152.29 930.68 1156.88 929.391 1161.39C923.849 1179.29 910.967 1193.95 891.34 1198.53C877.696 1181.85 873.324 1163.54 872.205 1146.29C871.275 1129.28 873.42 1113.2 875.229 1099.65L875.341 1098.81C875.951 1092.98 878.341 1083.19 880.476 1075.51C882.697 1067.59 885.103 1060.47 887.323 1054.49C889.39 1048.95 891.326 1044.38 892.745 1041.03L893.087 1040.22C894.358 1036.79 895.137 1034.88 895.137 1034.88C895.137 1034.88 896.527 1036.83 898.765 1040.3C901.12 1043.85 903.951 1048.78 907.222 1055.03Z" fill="url(#paint24_linear_266_45)"/>
  <path d="M1144.78 953.641C1145.88 949.167 1146.3 946.556 1146.3 946.556C1146.3 946.556 1137.63 951.184 1123.8 958.608C1110.29 966.065 1092.61 976.422 1075.85 988.439C1058.52 1000.29 1041.42 1013.69 1030.32 1029.12C1029.7 1030.03 1029.07 1030.93 1028.44 1031.84C1026.36 1034.82 1024.28 1037.81 1022.54 1040.93C1020.27 1044.97 1018.39 1049.17 1017.05 1053.54C1014.29 1062.29 1013.56 1071.71 1015.31 1082.09C1035.95 1088.05 1054.98 1083.44 1072.1 1072.49C1076.39 1069.78 1080.51 1066.63 1084.52 1063.26C1088.51 1059.81 1092.54 1056.14 1095.91 1052C1102.9 1043.86 1109.29 1034.75 1115 1025.46C1126.9 1007.05 1134.07 986.931 1139.19 971.93C1141.68 964.354 1143.59 958.065 1144.78 953.641Z" fill="#C4C4C4"/>
  <path d="M1144.78 953.641C1145.88 949.167 1146.3 946.556 1146.3 946.556C1146.3 946.556 1137.63 951.184 1123.8 958.608C1110.29 966.065 1092.61 976.422 1075.85 988.439C1058.52 1000.29 1041.42 1013.69 1030.32 1029.12C1029.7 1030.03 1029.07 1030.93 1028.44 1031.84C1026.36 1034.82 1024.28 1037.81 1022.54 1040.93C1020.27 1044.97 1018.39 1049.17 1017.05 1053.54C1014.29 1062.29 1013.56 1071.71 1015.31 1082.09C1035.95 1088.05 1054.98 1083.44 1072.1 1072.49C1076.39 1069.78 1080.51 1066.63 1084.52 1063.26C1088.51 1059.81 1092.54 1056.14 1095.91 1052C1102.9 1043.86 1109.29 1034.75 1115 1025.46C1126.9 1007.05 1134.07 986.931 1139.19 971.93C1141.68 964.354 1143.59 958.065 1144.78 953.641Z" fill="url(#paint25_linear_266_45)"/>
  <path d="M984.084 1043.87C980.067 1051.97 974.135 1059.22 965.915 1064.99C947.186 1054.19 936.491 1038.1 930.762 1020.58C929.338 1016.24 928.22 1011.75 927.389 1007.2C926.965 1004.97 926.643 1002.71 926.355 1000.42C926.21 999.491 926.068 998.561 925.925 997.627L925.916 997.567C925.711 996.229 925.505 994.883 925.288 993.508C924.135 984.27 923.796 975.016 924.135 966.168C925.271 948.455 926.372 931.845 928.609 919.692C929.54 914.304 930.524 909.792 931.254 906.441L931.525 905.2C932.084 901.725 932.525 899.776 932.525 899.776C932.525 899.776 934.22 901.369 937.135 904.284C940.118 907.233 943.813 911.471 948.203 916.861C956.965 927.59 967.948 942.947 976.864 960.795C985.253 978.507 990.711 998.44 990.609 1017.41C990.643 1022.19 989.846 1026.71 988.745 1031.15C987.626 1035.53 986.118 1039.87 984.084 1043.87Z" fill="#C4C4C4"/>
  <path d="M984.084 1043.87C980.067 1051.97 974.135 1059.22 965.915 1064.99C947.186 1054.19 936.491 1038.1 930.762 1020.58C929.338 1016.24 928.22 1011.75 927.389 1007.2C926.965 1004.97 926.643 1002.71 926.355 1000.42C926.21 999.491 926.068 998.561 925.925 997.627L925.916 997.567C925.711 996.229 925.505 994.883 925.288 993.508C924.135 984.27 923.796 975.016 924.135 966.168C925.271 948.455 926.372 931.845 928.609 919.692C929.54 914.304 930.524 909.792 931.254 906.441L931.525 905.2C932.084 901.725 932.525 899.776 932.525 899.776C932.525 899.776 934.22 901.369 937.135 904.284C940.118 907.233 943.813 911.471 948.203 916.861C956.965 927.59 967.948 942.947 976.864 960.795C985.253 978.507 990.711 998.44 990.609 1017.41C990.643 1022.19 989.846 1026.71 988.745 1031.15C987.626 1035.53 986.118 1039.87 984.084 1043.87Z" fill="url(#paint26_linear_266_45)"/>
  <path d="M1098.73 823.253C1095.24 827.1 1091.83 831.066 1088.53 835.1L1086.1 838.139C1083.68 841.181 1081.23 844.246 1078.77 847.321C1072.43 855.559 1066.95 864.034 1062.99 872.678C1060.97 877.017 1059.46 881.424 1058.12 885.814C1056.65 890.255 1055.65 894.679 1055.14 899.221C1054.11 908.29 1055.16 917.663 1058.84 927.46C1080.28 929.443 1098.07 921.273 1112.85 906.933C1116.53 903.425 1120.02 899.493 1123.31 895.255C1126.5 890.984 1129.19 886.407 1131.87 881.644C1137.14 872.085 1141.6 861.711 1145.41 851.253C1147.44 846.05 1148.73 840.728 1149.99 835.49C1151.21 830.253 1152.33 825.1 1153.28 820.134C1155.11 810.099 1156.73 800.777 1157.31 792.692C1158.26 776.573 1157.95 765.945 1157.95 765.945C1157.95 765.945 1150.09 772.539 1138.99 783.098C1136.17 785.864 1133.03 788.878 1129.67 792.1C1120.23 801.145 1109.08 811.831 1098.73 823.253Z" fill="#C4C4C4"/>
  <path d="M1098.73 823.253C1095.24 827.1 1091.83 831.066 1088.53 835.1L1086.1 838.139C1083.68 841.181 1081.23 844.246 1078.77 847.321C1072.43 855.559 1066.95 864.034 1062.99 872.678C1060.97 877.017 1059.46 881.424 1058.12 885.814C1056.65 890.255 1055.65 894.679 1055.14 899.221C1054.11 908.29 1055.16 917.663 1058.84 927.46C1080.28 929.443 1098.07 921.273 1112.85 906.933C1116.53 903.425 1120.02 899.493 1123.31 895.255C1126.5 890.984 1129.19 886.407 1131.87 881.644C1137.14 872.085 1141.6 861.711 1145.41 851.253C1147.44 846.05 1148.73 840.728 1149.99 835.49C1151.21 830.253 1152.33 825.1 1153.28 820.134C1155.11 810.099 1156.73 800.777 1157.31 792.692C1158.26 776.573 1157.95 765.945 1157.95 765.945C1157.95 765.945 1150.09 772.539 1138.99 783.098C1136.17 785.864 1133.03 788.878 1129.67 792.1C1120.23 801.145 1109.08 811.831 1098.73 823.253Z" fill="url(#paint27_linear_266_45)"/>
  <path d="M1023.67 878.773C1023.41 883.265 1022.72 887.706 1021.52 892.011C1019.13 900.655 1014.69 908.825 1007.79 915.995C987.33 908.944 973.703 895.367 964.737 879.807C962.483 875.891 960.567 871.824 958.855 867.722C956.821 863.552 955.11 859.349 953.601 855.078C950.584 846.535 948.449 837.891 947.008 829.45C946.65 827.529 946.281 825.622 945.915 823.732C944.673 817.317 943.471 811.106 942.855 805.279C942.381 801.466 942.059 797.855 941.788 794.448L941.716 793.216C941.544 790.24 941.383 787.449 941.025 784.855C939.754 773.074 939.855 765.362 939.855 765.362C939.855 765.362 947.822 769.736 959.127 777.871C961.957 779.922 964.991 782.21 968.195 784.719C971.415 787.228 974.652 789.973 977.754 792.956C984.059 798.906 990.584 805.771 996.77 813.313C999.804 817.161 1002.8 821.093 1005.62 825.263L1005.95 825.746C1007.23 827.636 1008.51 829.534 1009.69 831.517C1010.84 833.636 1011.96 835.789 1013.02 837.975C1017.28 846.721 1020.55 855.823 1022.31 864.993C1023.16 869.637 1023.79 874.231 1023.67 878.773Z" fill="#C4C4C4"/>
  <path d="M1023.67 878.773C1023.41 883.265 1022.72 887.706 1021.52 892.011C1019.13 900.655 1014.69 908.825 1007.79 915.995C987.33 908.944 973.703 895.367 964.737 879.807C962.483 875.891 960.567 871.824 958.855 867.722C956.821 863.552 955.11 859.349 953.601 855.078C950.584 846.535 948.449 837.891 947.008 829.45C946.65 827.529 946.281 825.622 945.915 823.732C944.673 817.317 943.471 811.106 942.855 805.279C942.381 801.466 942.059 797.855 941.788 794.448L941.716 793.216C941.544 790.24 941.383 787.449 941.025 784.855C939.754 773.074 939.855 765.362 939.855 765.362C939.855 765.362 947.822 769.736 959.127 777.871C961.957 779.922 964.991 782.21 968.195 784.719C971.415 787.228 974.652 789.973 977.754 792.956C984.059 798.906 990.584 805.771 996.77 813.313C999.804 817.161 1002.8 821.093 1005.62 825.263L1005.95 825.746C1007.23 827.636 1008.51 829.534 1009.69 831.517C1010.84 833.636 1011.96 835.789 1013.02 837.975C1017.28 846.721 1020.55 855.823 1022.31 864.993C1023.16 869.637 1023.79 874.231 1023.67 878.773Z" fill="url(#paint28_linear_266_45)"/>
  <path d="M1059.85 713.913C1057.66 723.253 1057.02 732.388 1058.44 741.389C1059.1 745.897 1060.54 750.254 1062.07 754.694C1063.59 759.101 1065.7 763.474 1068.49 767.763C1089.71 764.746 1106.15 752.576 1116.29 735.083C1121.51 726.337 1125.63 716.303 1128.8 705.71C1131.64 695.082 1133.03 683.929 1134.03 672.844C1134.44 667.284 1134.81 661.691 1134.85 656.284C1134.69 650.928 1134.41 645.657 1134.03 640.589C1133.24 630.419 1132.15 620.995 1130.95 612.978C1127.73 597.18 1124.73 586.993 1124.73 586.993C1124.73 586.993 1118.83 595.401 1110.78 608.418C1106.85 614.808 1102.19 622.385 1097.02 630.792C1092.02 639.165 1086.85 648.131 1082.08 657.369L1079.9 661.72C1075.96 669.526 1071.9 677.592 1068.54 685.573C1064.53 695.15 1061.68 704.574 1059.85 713.913Z" fill="#C4C4C4"/>
  <path d="M1059.85 713.913C1057.66 723.253 1057.02 732.388 1058.44 741.389C1059.1 745.897 1060.54 750.254 1062.07 754.694C1063.59 759.101 1065.7 763.474 1068.49 767.763C1089.71 764.746 1106.15 752.576 1116.29 735.083C1121.51 726.337 1125.63 716.303 1128.8 705.71C1131.64 695.082 1133.03 683.929 1134.03 672.844C1134.44 667.284 1134.81 661.691 1134.85 656.284C1134.69 650.928 1134.41 645.657 1134.03 640.589C1133.24 630.419 1132.15 620.995 1130.95 612.978C1127.73 597.18 1124.73 586.993 1124.73 586.993C1124.73 586.993 1118.83 595.401 1110.78 608.418C1106.85 614.808 1102.19 622.385 1097.02 630.792C1092.02 639.165 1086.85 648.131 1082.08 657.369L1079.9 661.72C1075.96 669.526 1071.9 677.592 1068.54 685.573C1064.53 695.15 1061.68 704.574 1059.85 713.913Z" fill="url(#paint29_linear_266_45)"/>
  <path d="M1003.09 687.585C1009.48 694.873 1015.21 702.755 1019.07 711.162C1022.6 719.603 1024.66 728.451 1024.63 737.264C1024.58 741.739 1024.24 746.129 1022.83 750.57C1021.41 754.943 1019.38 759.282 1016.7 763.519C995.156 761.502 979.682 751.604 966.444 739.095C960.038 732.773 954.614 725.705 950.021 718.331C944.97 711.026 940.53 703.365 936.97 695.856C935.888 693.711 934.96 691.561 934.042 689.433C933.35 687.829 932.662 686.235 931.919 684.669C930.174 681.025 928.581 677.448 927.191 674.008C924.754 668.256 922.91 662.753 921.281 657.894L920.823 656.53L920.581 655.811L920.343 655.109C916.089 644.21 914.276 636.837 914.276 636.837C914.276 636.837 923.072 638.956 936.072 643.854C949.411 648.634 965.479 656.77 981.411 668.126L981.415 668.129C985.329 670.976 989.429 673.958 992.936 677.228C996.495 680.499 999.902 683.974 1003.09 687.585Z" fill="#C4C4C4"/>
  <path d="M1003.09 687.585C1009.48 694.873 1015.21 702.755 1019.07 711.162C1022.6 719.603 1024.66 728.451 1024.63 737.264C1024.58 741.739 1024.24 746.129 1022.83 750.57C1021.41 754.943 1019.38 759.282 1016.7 763.519C995.156 761.502 979.682 751.604 966.444 739.095C960.038 732.773 954.614 725.705 950.021 718.331C944.97 711.026 940.53 703.365 936.97 695.856C935.888 693.711 934.96 691.561 934.042 689.433C933.35 687.829 932.662 686.235 931.919 684.669C930.174 681.025 928.581 677.448 927.191 674.008C924.754 668.256 922.91 662.753 921.281 657.894L920.823 656.53L920.581 655.811L920.343 655.109C916.089 644.21 914.276 636.837 914.276 636.837C914.276 636.837 923.072 638.956 936.072 643.854C949.411 648.634 965.479 656.77 981.411 668.126L981.415 668.129C985.329 670.976 989.429 673.958 992.936 677.228C996.495 680.499 999.902 683.974 1003.09 687.585Z" fill="url(#paint30_linear_266_45)"/>
  <path d="M1048.39 424.382C1048.39 424.382 1044.86 433.721 1039.85 448.315C1034.85 462.942 1029.22 482.045 1023.95 502.401C1021.41 512.571 1019.63 522.724 1018.1 532.86C1016.51 543.064 1015.81 552.997 1016.54 562.353C1016.62 563.115 1016.69 563.881 1016.77 564.648C1017.13 568.502 1017.51 572.393 1018.25 576.082C1019.15 580.591 1020.44 584.896 1022.24 589.032C1024.02 593.1 1026.29 597.083 1029.15 600.846C1031.78 604.626 1034.9 608.304 1038.69 611.745C1048.64 607.541 1056.68 601.541 1063.05 594.1C1069.54 586.591 1073.54 577.879 1076.56 568.116C1078.02 563.251 1079.1 558.149 1079.9 552.895C1080.68 547.623 1081.24 542.166 1081.12 536.809C1081.08 525.979 1079.97 514.792 1078.19 503.91C1073.88 482.452 1067.02 462.027 1060.22 447.79C1056.98 440.603 1054.05 434.687 1051.98 430.568C1049.78 426.602 1048.39 424.382 1048.39 424.382Z" fill="#C4C4C4"/>
  <path d="M1048.39 424.382C1048.39 424.382 1044.86 433.721 1039.85 448.315C1034.85 462.942 1029.22 482.045 1023.95 502.401C1021.41 512.571 1019.63 522.724 1018.1 532.86C1016.51 543.064 1015.81 552.997 1016.54 562.353C1016.62 563.115 1016.69 563.881 1016.77 564.648C1017.13 568.502 1017.51 572.393 1018.25 576.082C1019.15 580.591 1020.44 584.896 1022.24 589.032C1024.02 593.1 1026.29 597.083 1029.15 600.846C1031.78 604.626 1034.9 608.304 1038.69 611.745C1048.64 607.541 1056.68 601.541 1063.05 594.1C1069.54 586.591 1073.54 577.879 1076.56 568.116C1078.02 563.251 1079.1 558.149 1079.9 552.895C1080.68 547.623 1081.24 542.166 1081.12 536.809C1081.08 525.979 1079.97 514.792 1078.19 503.91C1073.88 482.452 1067.02 462.027 1060.22 447.79C1056.98 440.603 1054.05 434.687 1051.98 430.568C1049.78 426.602 1048.39 424.382 1048.39 424.382Z" fill="url(#paint31_linear_266_45)"/>
  <path d="M977.016 564.664C980.101 568.105 982.422 571.952 984.456 575.919C986.439 579.851 988.032 583.987 989.117 588.292C990.219 592.529 990.778 596.953 990.778 601.428C990.558 606.021 989.66 610.733 988.168 615.428C977.558 617.259 967.745 616.716 958.762 614.767C949.813 612.75 941.05 609.343 933.355 604.902C929.507 602.716 925.813 600.258 922.338 597.614C920.575 596.258 918.897 594.902 917.236 593.512C916.613 592.994 915.983 592.484 915.352 591.974L915.346 591.97C914.247 591.081 913.142 590.187 912.067 589.241C905.372 583.478 899.355 577.156 894.084 570.766C888.355 564.478 883.254 558.088 878.948 552.003C877.864 550.443 876.83 548.951 875.83 547.494C875.297 546.805 874.783 546.107 874.278 545.422L874.275 545.417C873.738 544.688 873.21 543.971 872.677 543.29C870.661 540.477 868.864 537.884 867.22 535.409C864.661 531.583 862.625 528.165 861.015 525.462L860.615 524.791C860.328 524.309 860.055 523.853 859.796 523.425C857.983 520.51 856.999 518.849 856.999 518.849C856.999 518.849 859.322 518.815 863.389 519.018C867.508 519.154 873.084 519.578 879.898 520.442C886.694 521.307 894.644 522.561 903.305 524.544C907.559 525.51 912.135 526.595 916.525 528.019C920.898 529.375 925.338 530.968 929.83 532.747C938.694 536.324 947.88 540.595 955.88 545.951C963.779 551.392 971.033 557.613 977.016 564.664Z" fill="#C4C4C4"/>
  <path d="M977.016 564.664C980.101 568.105 982.422 571.952 984.456 575.919C986.439 579.851 988.032 583.987 989.117 588.292C990.219 592.529 990.778 596.953 990.778 601.428C990.558 606.021 989.66 610.733 988.168 615.428C977.558 617.259 967.745 616.716 958.762 614.767C949.813 612.75 941.05 609.343 933.355 604.902C929.507 602.716 925.813 600.258 922.338 597.614C920.575 596.258 918.897 594.902 917.236 593.512C916.613 592.994 915.983 592.484 915.352 591.974L915.346 591.97C914.247 591.081 913.142 590.187 912.067 589.241C905.372 583.478 899.355 577.156 894.084 570.766C888.355 564.478 883.254 558.088 878.948 552.003C877.864 550.443 876.83 548.951 875.83 547.494C875.297 546.805 874.783 546.107 874.278 545.422L874.275 545.417C873.738 544.688 873.21 543.971 872.677 543.29C870.661 540.477 868.864 537.884 867.22 535.409C864.661 531.583 862.625 528.165 861.015 525.462L860.615 524.791C860.328 524.309 860.055 523.853 859.796 523.425C857.983 520.51 856.999 518.849 856.999 518.849C856.999 518.849 859.322 518.815 863.389 519.018C867.508 519.154 873.084 519.578 879.898 520.442C886.694 521.307 894.644 522.561 903.305 524.544C907.559 525.51 912.135 526.595 916.525 528.019C920.898 529.375 925.338 530.968 929.83 532.747C938.694 536.324 947.88 540.595 955.88 545.951C963.779 551.392 971.033 557.613 977.016 564.664Z" fill="url(#paint32_linear_266_45)"/>
  <path d="M971.006 469.348C988.176 456.432 996.125 438.364 997.413 418.143C997.871 408.142 996.786 397.617 994.599 387.057C992.26 376.565 988.549 366.293 984.413 356.242C980.21 346.276 974.99 337.106 970.057 328.529C965.555 320.759 960.661 314.026 956.382 308.14L955.652 307.136C955.475 306.893 955.299 306.651 955.125 306.41C950.583 300.054 946.397 295.189 943.414 291.782C940.431 288.443 938.753 286.545 938.753 286.545C938.753 286.545 937.075 296.511 935.515 311.444C934.617 319.02 933.719 327.868 933.041 337.36C932.668 342.055 932.38 346.954 932.159 351.954L932.126 352.616L932.125 352.626C931.881 357.45 931.63 362.42 931.549 367.344C931.346 387.904 932.244 409.159 937.769 427.007C940.329 436.075 944.159 444.296 949.702 451.347C954.939 458.602 961.803 464.687 971.006 469.348Z" fill="#C4C4C4"/>
  <path d="M971.006 469.348C988.176 456.432 996.125 438.364 997.413 418.143C997.871 408.142 996.786 397.617 994.599 387.057C992.26 376.565 988.549 366.293 984.413 356.242C980.21 346.276 974.99 337.106 970.057 328.529C965.555 320.759 960.661 314.026 956.382 308.14L955.652 307.136C955.475 306.893 955.299 306.651 955.125 306.41C950.583 300.054 946.397 295.189 943.414 291.782C940.431 288.443 938.753 286.545 938.753 286.545C938.753 286.545 937.075 296.511 935.515 311.444C934.617 319.02 933.719 327.868 933.041 337.36C932.668 342.055 932.38 346.954 932.159 351.954L932.126 352.616L932.125 352.626C931.881 357.45 931.63 362.42 931.549 367.344C931.346 387.904 932.244 409.159 937.769 427.007C940.329 436.075 944.159 444.296 949.702 451.347C954.939 458.602 961.803 464.687 971.006 469.348Z" fill="url(#paint33_linear_266_45)"/>
  <path d="M847.173 413.201C866.393 416.015 885.715 422.54 900.444 433.49C907.613 439.083 913.681 445.779 917.867 453.389C921.85 461.271 923.851 470.203 923.393 480C903.512 488.712 884.783 487.95 867.665 482.95C858.987 480.543 850.749 476.932 843.088 472.627C835.207 468.457 827.682 463.661 820.936 458.559C814.021 453.559 807.444 448.423 801.8 443.355C801.05 442.691 800.305 442.035 799.569 441.385C794.718 437.108 790.213 433.135 786.563 429.456C784.599 427.46 782.759 425.652 781.114 424.035C779.267 422.22 777.666 420.647 776.411 419.32C773.987 416.811 772.733 415.354 772.733 415.354C772.733 415.354 781.682 413.438 795.597 412.015C802.495 411.388 810.495 411.015 819.326 411.049C828.19 411.117 837.732 411.642 847.173 413.201Z" fill="#C4C4C4"/>
  <path d="M847.173 413.201C866.393 416.015 885.715 422.54 900.444 433.49C907.613 439.083 913.681 445.779 917.867 453.389C921.85 461.271 923.851 470.203 923.393 480C903.512 488.712 884.783 487.95 867.665 482.95C858.987 480.543 850.749 476.932 843.088 472.627C835.207 468.457 827.682 463.661 820.936 458.559C814.021 453.559 807.444 448.423 801.8 443.355C801.05 442.691 800.305 442.035 799.569 441.385C794.718 437.108 790.213 433.135 786.563 429.456C784.599 427.46 782.759 425.652 781.114 424.035C779.267 422.22 777.666 420.647 776.411 419.32C773.987 416.811 772.733 415.354 772.733 415.354C772.733 415.354 781.682 413.438 795.597 412.015C802.495 411.388 810.495 411.015 819.326 411.049C828.19 411.117 837.732 411.642 847.173 413.201Z" fill="url(#paint34_linear_266_45)"/>
  <defs>
    <linearGradient id="paint0_linear_266_45" x1="-140.5" y1="1728" x2="1654" y2="9.36519e-05" gradientUnits="userSpaceOnUse">
      <stop offset="0.22871" stop-color="#1D1D1D"/>
      <stop offset="1" stop-color="#E2A52A"/>
    </linearGradient>
    <linearGradient id="paint1_linear_266_45" x1="-140.5" y1="1728" x2="1654" y2="9.36519e-05" gradientUnits="userSpaceOnUse">
      <stop offset="0.22871" stop-color="#1D1D1D"/>
      <stop offset="1" stop-color="#E2A52A"/>
    </linearGradient>
    <linearGradient id="paint2_linear_266_45" x1="-140.5" y1="1728" x2="1654" y2="9.36519e-05" gradientUnits="userSpaceOnUse">
      <stop offset="0.22871" stop-color="#1D1D1D"/>
      <stop offset="1" stop-color="#E2A52A"/>
    </linearGradient>
    <linearGradient id="paint3_linear_266_45" x1="-140.5" y1="1728" x2="1654" y2="9.36519e-05" gradientUnits="userSpaceOnUse">
      <stop offset="0.22871" stop-color="#1D1D1D"/>
      <stop offset="1" stop-color="#E2A52A"/>
    </linearGradient>
    <linearGradient id="paint4_linear_266_45" x1="-140.5" y1="1728" x2="1654" y2="9.36519e-05" gradientUnits="userSpaceOnUse">
      <stop offset="0.22871" stop-color="#1D1D1D"/>
      <stop offset="1" stop-color="#E2A52A"/>
    </linearGradient>
    <linearGradient id="paint5_linear_266_45" x1="-140.5" y1="1728" x2="1654" y2="9.36519e-05" gradientUnits="userSpaceOnUse">
      <stop offset="0.22871" stop-color="#1D1D1D"/>
      <stop offset="1" stop-color="#E2A52A"/>
    </linearGradient>
    <linearGradient id="paint6_linear_266_45" x1="-140.5" y1="1728" x2="1654" y2="9.36519e-05" gradientUnits="userSpaceOnUse">
      <stop offset="0.22871" stop-color="#1D1D1D"/>
      <stop offset="1" stop-color="#E2A52A"/>
    </linearGradient>
    <linearGradient id="paint7_linear_266_45" x1="-140.5" y1="1728" x2="1654" y2="9.36519e-05" gradientUnits="userSpaceOnUse">
      <stop offset="0.22871" stop-color="#1D1D1D"/>
      <stop offset="1" stop-color="#E2A52A"/>
    </linearGradient>
    <linearGradient id="paint8_linear_266_45" x1="-140.5" y1="1728" x2="1654" y2="9.36519e-05" gradientUnits="userSpaceOnUse">
      <stop offset="0.22871" stop-color="#1D1D1D"/>
      <stop offset="1" stop-color="#E2A52A"/>
    </linearGradient>
    <linearGradient id="paint9_linear_266_45" x1="-140.5" y1="1728" x2="1654" y2="9.36519e-05" gradientUnits="userSpaceOnUse">
      <stop offset="0.22871" stop-color="#1D1D1D"/>
      <stop offset="1" stop-color="#E2A52A"/>
    </linearGradient>
    <linearGradient id="paint10_linear_266_45" x1="-140.5" y1="1728" x2="1654" y2="9.36519e-05" gradientUnits="userSpaceOnUse">
      <stop offset="0.22871" stop-color="#1D1D1D"/>
      <stop offset="1" stop-color="#E2A52A"/>
    </linearGradient>
    <linearGradient id="paint11_linear_266_45" x1="-140.5" y1="1728" x2="1654" y2="9.36519e-05" gradientUnits="userSpaceOnUse">
      <stop offset="0.22871" stop-color="#1D1D1D"/>
      <stop offset="1" stop-color="#E2A52A"/>
    </linearGradient>
    <linearGradient id="paint12_linear_266_45" x1="-140.5" y1="1728" x2="1654" y2="9.36519e-05" gradientUnits="userSpaceOnUse">
      <stop offset="0.22871" stop-color="#1D1D1D"/>
      <stop offset="1" stop-color="#E2A52A"/>
    </linearGradient>
    <linearGradient id="paint13_linear_266_45" x1="-140.5" y1="1728" x2="1654" y2="9.36519e-05" gradientUnits="userSpaceOnUse">
      <stop offset="0.22871" stop-color="#1D1D1D"/>
      <stop offset="1" stop-color="#E2A52A"/>
    </linearGradient>
    <linearGradient id="paint14_linear_266_45" x1="-140.5" y1="1728" x2="1654" y2="9.36519e-05" gradientUnits="userSpaceOnUse">
      <stop offset="0.22871" stop-color="#1D1D1D"/>
      <stop offset="1" stop-color="#E2A52A"/>
    </linearGradient>
    <linearGradient id="paint15_linear_266_45" x1="-140.5" y1="1728" x2="1654" y2="9.36519e-05" gradientUnits="userSpaceOnUse">
      <stop offset="0.22871" stop-color="#1D1D1D"/>
      <stop offset="1" stop-color="#E2A52A"/>
    </linearGradient>
    <linearGradient id="paint16_linear_266_45" x1="-140.5" y1="1728" x2="1654" y2="9.36519e-05" gradientUnits="userSpaceOnUse">
      <stop offset="0.22871" stop-color="#1D1D1D"/>
      <stop offset="1" stop-color="#E2A52A"/>
    </linearGradient>
    <linearGradient id="paint17_linear_266_45" x1="-140.5" y1="1728" x2="1654" y2="9.36519e-05" gradientUnits="userSpaceOnUse">
      <stop offset="0.22871" stop-color="#1D1D1D"/>
      <stop offset="1" stop-color="#E2A52A"/>
    </linearGradient>
    <linearGradient id="paint18_linear_266_45" x1="-140.5" y1="1728" x2="1654" y2="9.36519e-05" gradientUnits="userSpaceOnUse">
      <stop offset="0.22871" stop-color="#1D1D1D"/>
      <stop offset="1" stop-color="#E2A52A"/>
    </linearGradient>
    <linearGradient id="paint19_linear_266_45" x1="-140.5" y1="1728" x2="1654" y2="9.36519e-05" gradientUnits="userSpaceOnUse">
      <stop offset="0.22871" stop-color="#1D1D1D"/>
      <stop offset="1" stop-color="#E2A52A"/>
    </linearGradient>
    <linearGradient id="paint20_linear_266_45" x1="-140.5" y1="1728" x2="1654" y2="9.36519e-05" gradientUnits="userSpaceOnUse">
      <stop offset="0.22871" stop-color="#1D1D1D"/>
      <stop offset="1" stop-color="#E2A52A"/>
    </linearGradient>
    <linearGradient id="paint21_linear_266_45" x1="-140.5" y1="1728" x2="1654" y2="9.36519e-05" gradientUnits="userSpaceOnUse">
      <stop offset="0.22871" stop-color="#1D1D1D"/>
      <stop offset="1" stop-color="#E2A52A"/>
    </linearGradient>
    <linearGradient id="paint22_linear_266_45" x1="-140.5" y1="1728" x2="1654" y2="9.36519e-05" gradientUnits="userSpaceOnUse">
      <stop offset="0.22871" stop-color="#1D1D1D"/>
      <stop offset="1" stop-color="#E2A52A"/>
    </linearGradient>
    <linearGradient id="paint23_linear_266_45" x1="-140.5" y1="1728" x2="1654" y2="9.36519e-05" gradientUnits="userSpaceOnUse">
      <stop offset="0.22871" stop-color="#1D1D1D"/>
      <stop offset="1" stop-color="#E2A52A"/>
    </linearGradient>
    <linearGradient id="paint24_linear_266_45" x1="-140.5" y1="1728" x2="1654" y2="9.36519e-05" gradientUnits="userSpaceOnUse">
      <stop offset="0.22871" stop-color="#1D1D1D"/>
      <stop offset="1" stop-color="#E2A52A"/>
    </linearGradient>
    <linearGradient id="paint25_linear_266_45" x1="-140.5" y1="1728" x2="1654" y2="9.36519e-05" gradientUnits="userSpaceOnUse">
      <stop offset="0.22871" stop-color="#1D1D1D"/>
      <stop offset="1" stop-color="#E2A52A"/>
    </linearGradient>
    <linearGradient id="paint26_linear_266_45" x1="-140.5" y1="1728" x2="1654" y2="9.36519e-05" gradientUnits="userSpaceOnUse">
      <stop offset="0.22871" stop-color="#1D1D1D"/>
      <stop offset="1" stop-color="#E2A52A"/>
    </linearGradient>
    <linearGradient id="paint27_linear_266_45" x1="-140.5" y1="1728" x2="1654" y2="9.36519e-05" gradientUnits="userSpaceOnUse">
      <stop offset="0.22871" stop-color="#1D1D1D"/>
      <stop offset="1" stop-color="#E2A52A"/>
    </linearGradient>
    <linearGradient id="paint28_linear_266_45" x1="-140.5" y1="1728" x2="1654" y2="9.36519e-05" gradientUnits="userSpaceOnUse">
      <stop offset="0.22871" stop-color="#1D1D1D"/>
      <stop offset="1" stop-color="#E2A52A"/>
    </linearGradient>
    <linearGradient id="paint29_linear_266_45" x1="-140.5" y1="1728" x2="1654" y2="9.36519e-05" gradientUnits="userSpaceOnUse">
      <stop offset="0.22871" stop-color="#1D1D1D"/>
      <stop offset="1" stop-color="#E2A52A"/>
    </linearGradient>
    <linearGradient id="paint30_linear_266_45" x1="-140.5" y1="1728" x2="1654" y2="9.36519e-05" gradientUnits="userSpaceOnUse">
      <stop offset="0.22871" stop-color="#1D1D1D"/>
      <stop offset="1" stop-color="#E2A52A"/>
    </linearGradient>
    <linearGradient id="paint31_linear_266_45" x1="-140.5" y1="1728" x2="1654" y2="9.36519e-05" gradientUnits="userSpaceOnUse">
      <stop offset="0.22871" stop-color="#1D1D1D"/>
      <stop offset="1" stop-color="#E2A52A"/>
    </linearGradient>
    <linearGradient id="paint32_linear_266_45" x1="-140.5" y1="1728" x2="1654" y2="9.36519e-05" gradientUnits="userSpaceOnUse">
      <stop offset="0.22871" stop-color="#1D1D1D"/>
      <stop offset="1" stop-color="#E2A52A"/>
    </linearGradient>
    <linearGradient id="paint33_linear_266_45" x1="-140.5" y1="1728" x2="1654" y2="9.36519e-05" gradientUnits="userSpaceOnUse">
      <stop offset="0.22871" stop-color="#1D1D1D"/>
      <stop offset="1" stop-color="#E2A52A"/>
    </linearGradient>
    <linearGradient id="paint34_linear_266_45" x1="-140.5" y1="1728" x2="1654" y2="9.36519e-05" gradientUnits="userSpaceOnUse">
      <stop offset="0.22871" stop-color="#1D1D1D"/>
      <stop offset="1" stop-color="#E2A52A"/>
    </linearGradient>
  </defs>
</svg>