<svg xmlns="http://www.w3.org/2000/svg" width="89" height="110" viewBox="0 0 89 110" fill="none">
  <path fill-rule="evenodd" clip-rule="evenodd" d="M40.2636 0.580334C24.0423 3.32458 13.7567 19.5398 18.2993 35.2076C21.0103 44.5593 28.3821 51.7215 37.9154 54.2667C40.1247 54.8564 40.9036 54.9336 44.6592 54.9336C48.4148 54.9336 49.1938 54.8564 51.4031 54.2667C60.964 51.714 68.3015 44.5819 71.0228 35.1961C75.5013 19.7487 65.411 3.53267 49.5487 0.685022C47.4781 0.313343 42.195 0.253669 40.2636 0.580334ZM24.8889 60.7948C14.9482 61.9489 6.23935 67.5797 2.45544 75.2993C1.16849 77.9249 0.611605 80.35 0.625244 83.2704C0.648147 88.155 2.41658 92.0575 6.55561 96.3561C13.2482 103.307 22.2196 107.526 34.0934 109.308C37.8315 109.869 50.692 109.951 54.3094 109.437C63.3281 108.155 70.6106 105.598 76.5641 101.622C79.3971 99.7292 83.599 95.8038 85.2166 93.538C86.5756 91.6344 87.7316 89.2137 88.2756 87.1313C88.7908 85.1597 88.8 81.366 88.2946 79.1889C86.1116 69.7802 75.9874 62.0567 64.1627 60.7794C61.1719 60.4561 27.6919 60.4694 24.8889 60.7948Z" fill="white"/>
</svg>