<svg xmlns="http://www.w3.org/2000/svg" width="31" height="31" viewBox="0 0 31 31" fill="none">
  <path d="M25.8327 20.667H5.16602" stroke="#C4C4C4" stroke-width="2.58333" stroke-linecap="round"/>
  <path d="M15.5 11.625L15.87 12.9216L17.1779 12.5938L16.2401 13.5625L17.1779 14.5312L15.87 14.2034L15.5 15.5L15.13 14.2034L13.8221 14.5312L14.7599 13.5625L13.8221 12.5938L15.13 12.9216L15.5 11.625Z" stroke="#C4C4C4" stroke-width="2.58333" stroke-linecap="round" stroke-linejoin="round"/>
  <path d="M7.10352 11.625L7.47355 12.9216L8.78144 12.5938L7.84357 13.5625L8.78144 14.5312L7.47355 14.2034L7.10352 15.5L6.73349 14.2034L5.42559 14.5312L6.36346 13.5625L5.42559 12.5938L6.73349 12.9216L7.10352 11.625Z" stroke="#C4C4C4" stroke-width="2.58333" stroke-linecap="round" stroke-linejoin="round"/>
  <path d="M23.8965 11.625L24.2665 12.9216L25.5744 12.5938L24.6365 13.5625L25.5744 14.5312L24.2665 14.2034L23.8965 15.5L23.5265 14.2034L22.2186 14.5312L23.1564 13.5625L22.2186 12.5938L23.5265 12.9216L23.8965 11.625Z" stroke="#C4C4C4" stroke-width="2.58333" stroke-linecap="round" stroke-linejoin="round"/>
</svg>