<svg xmlns="http://www.w3.org/2000/svg" width="26" height="26" viewBox="0 0 26 26" fill="none">
  <path d="M7.177 0.088088C6.60148 0.221722 5.62648 0.728124 5.1119 1.15716C4.32648 1.8183 3.66971 2.88033 3.40565 3.92127C3.24315 4.54021 3.24992 5.89765 3.41242 6.52362C3.79836 8.00765 4.82075 9.28773 6.12752 9.9348C6.75721 10.2443 7.33273 10.392 8.07075 10.4412L8.66658 10.4834V10.0684C8.66658 9.35806 8.66658 9.36509 8.03013 9.31586C7.04159 9.24553 6.20877 8.83759 5.4843 8.07799C5.03065 7.59972 4.71242 7.05815 4.49575 6.38295C4.2994 5.79215 4.31971 4.53317 4.52961 3.92127C4.94263 2.7045 5.84992 1.74093 7.0145 1.30486C7.502 1.12199 8.59888 1.05166 9.15408 1.17123C9.64835 1.27673 10.3728 1.64949 10.8197 2.01523C11.1244 2.26843 11.578 2.82407 11.815 3.24607C11.876 3.3586 11.9234 3.35157 12.3431 3.15463C12.5937 3.03507 12.7968 2.90143 12.7968 2.85923C12.7968 2.6623 12.2077 1.84643 11.7473 1.40333C11.1379 0.819558 10.664 0.517123 9.90565 0.242822C9.38429 0.0529213 9.20148 0.0247879 8.46346 0.00368786C7.90148 -0.0103788 7.46815 0.0177546 7.177 0.088088Z" fill="#C4C4C4"/>
  <path d="M15.2281 3.29584C12.6823 3.52794 10.4344 5.58169 9.80469 8.24733C9.60156 9.11947 9.60156 10.3855 9.80469 11.2576C10.3125 13.3887 11.863 15.1822 13.813 15.8856C15.1672 16.3709 16.8531 16.3498 18.1463 15.8223C20.4552 14.8798 22.0125 12.6432 22.1208 10.0901C22.1614 9.16167 22.0802 8.4513 21.8432 7.72686C20.875 4.77285 18.2547 3.01451 15.2281 3.29584ZM17.1172 4.51262C18.5391 4.85725 19.8864 5.98259 20.55 7.38223C21.2406 8.84517 21.2406 10.6598 20.5432 12.1297C19.8864 13.5294 18.5526 14.6336 17.0833 15.0064C16.3927 15.1752 15.2755 15.1611 14.5917 14.9642C12.6687 14.4086 11.2198 12.8401 10.8339 10.8637C10.6646 10.0408 10.6646 9.4641 10.8271 8.6623C11.3484 6.05996 13.6302 4.22425 16.149 4.37898C16.4469 4.40008 16.8802 4.45635 17.1172 4.51262Z" fill="#C4C4C4"/>
  <path d="M4.02187 9.66815C2.38333 10.688 1.16458 12.1931 0.507812 14.0007C0.331771 14.493 0 15.8083 0 16.0193C0 16.1107 0.115104 16.1529 0.4875 16.2092C0.758333 16.2514 1.00208 16.2654 1.02239 16.2373C1.04271 16.2092 1.11719 15.9208 1.17812 15.5902C1.53021 13.8108 2.66094 11.954 3.94062 11.0608L4.28593 10.8146L4.73281 11.1733C5.70104 11.947 6.85208 12.3549 8.05051 12.3549C8.73437 12.3479 9.30312 12.2775 9.39114 12.1931C9.41145 12.172 9.3776 11.9259 9.30989 11.6516L9.18801 11.1452L8.8427 11.2014C7.35989 11.4124 6.09374 10.9975 5.04427 9.95652C4.73958 9.64705 4.47552 9.40089 4.46198 9.40792C4.44843 9.40792 4.24531 9.52749 4.02187 9.66815Z" fill="#C4C4C4"/>
  <path d="M2.77557 16.73C1.36723 18.1226 0.649527 18.8893 0.656297 18.9666C0.663068 19.037 0.751089 19.2691 0.83911 19.4871L1.00838 19.881H1.89536C2.54536 19.881 2.78234 19.9021 2.80265 19.9654C2.95838 20.5773 3.24952 21.4283 3.45265 21.8503C4.22452 23.4399 5.60577 24.6988 7.40004 25.4373C7.89431 25.6343 9.11983 26 9.30264 26C9.34327 26 9.46514 25.7749 9.57348 25.5006C9.74952 25.0435 9.75629 24.9872 9.65473 24.9309C9.36358 24.7621 8.64587 24.0588 8.3615 23.6649C7.65733 22.6943 7.35942 21.8292 7.14275 20.1834L7.1089 19.888L8.00265 19.8669L8.88962 19.8458L9.07921 19.3675L9.26879 18.8963L7.13598 16.7652C5.95786 15.5977 4.97609 14.6341 4.95577 14.6271C4.92869 14.613 3.94692 15.5625 2.77557 16.73ZM6.26254 17.4545L7.549 18.7486L6.79067 18.7556H6.02556V19.248C6.02556 20.943 6.44536 22.6592 7.12921 23.7634C7.26463 23.9885 7.35942 24.1713 7.34588 24.1713C7.32556 24.1713 7.13598 24.0799 6.91931 23.9674C6.03233 23.5032 5.09119 22.5748 4.56984 21.6534C4.23129 21.0555 3.89275 20.0357 3.77765 19.2902L3.6964 18.7556H3.02609C2.66046 18.7556 2.36932 18.7275 2.38286 18.6923C2.40994 18.622 4.89484 16.1533 4.94223 16.1533C4.96254 16.1533 5.55838 16.7371 6.26254 17.4545Z" fill="#C4C4C4"/>
  <path d="M10.5961 15.7032C9.93255 16.1252 9.13359 16.7371 8.8763 17.0254L8.70703 17.2083L9.07266 17.5951L9.43151 17.9749L9.91224 17.567C10.3997 17.1591 10.9956 16.716 11.0633 16.716C11.0836 16.716 11.3341 16.9129 11.6253 17.1591C13.0065 18.3125 14.8888 18.8963 16.5883 18.6853C18.1049 18.5024 19.107 18.0453 20.4815 16.8988L20.7185 16.6949L21.1789 17.0184C23.4742 18.615 24.7268 21.0133 24.8961 24.1502L24.9367 24.945H18.1253H11.307V25.4725V26H18.6128H25.9185L25.9591 25.8382C25.9794 25.7538 25.9997 25.3389 25.9997 24.9239C26.0065 20.6898 24.2732 17.4896 20.9013 15.5203L20.5154 15.2952L19.9195 15.879C19.3034 16.4839 18.6601 16.927 18.0101 17.1942C15.8503 18.0804 13.4534 17.5389 11.7742 15.8016C11.5169 15.5273 11.2799 15.3093 11.2529 15.3163C11.2258 15.3163 10.9346 15.4922 10.5961 15.7032Z" fill="#C4C4C4"/>
</svg>