<svg xmlns="http://www.w3.org/2000/svg" width="42" height="40" viewBox="0 0 42 40" fill="none">
  <path d="M2 36.2023C1.99973 33.744 2.59571 31.3223 3.73682 29.1448C4.87794 26.9673 6.53015 25.0991 8.55177 23.7004C10.5734 22.3016 12.9041 21.4141 15.344 21.1138C17.784 20.8136 20.2603 21.1095 22.5608 21.9764" stroke="white" stroke-width="3" stroke-linecap="round" stroke-linejoin="round"/>
  <path d="M38.8154 27.89C39.5723 27.1331 39.9975 26.1065 39.9975 25.0361C39.9975 23.9656 39.5723 22.939 38.8154 22.1821C38.0585 21.4252 37.0319 21 35.9615 21C34.8911 21 33.8645 21.4252 33.1076 22.1821L25.4882 29.8053C25.0365 30.2568 24.7058 30.8148 24.5268 31.4279L22.9364 36.8812C22.8888 37.0447 22.8859 37.218 22.9282 37.383C22.9704 37.5479 23.0563 37.6985 23.1767 37.8189C23.2971 37.9394 23.4477 38.0252 23.6127 38.0675C23.7777 38.1098 23.951 38.1069 24.1145 38.0592L29.5677 36.4688C30.1808 36.2898 30.7389 35.9591 31.1904 35.5074L38.8154 27.89Z" stroke="white" stroke-width="3" stroke-linecap="round" stroke-linejoin="round"/>
  <path d="M17.1957 21.0008C22.4426 21.0008 26.6961 16.7473 26.6961 11.5004C26.6961 6.25348 22.4426 2 17.1957 2C11.9488 2 7.69531 6.25348 7.69531 11.5004C7.69531 16.7473 11.9488 21.0008 17.1957 21.0008Z" stroke="white" stroke-width="3" stroke-linecap="round" stroke-linejoin="round"/>
</svg>