<svg xmlns="http://www.w3.org/2000/svg" width="40" height="36" viewBox="0 0 40 36" fill="none">
  <path d="M30.8045 34.4042C30.8045 30.5845 29.2871 26.9212 26.5862 24.2203C23.8852 21.5193 20.222 20.002 16.4022 20.002C12.5825 20.002 8.91927 21.5193 6.21832 24.2203C3.51738 26.9212 2 30.5845 2 34.4042" stroke="white" stroke-width="3" stroke-linecap="round" stroke-linejoin="round"/>
  <path d="M16.4077 20.0028C21.379 20.0028 25.4091 15.9727 25.4091 11.0014C25.4091 6.03007 21.379 2 16.4077 2C11.4363 2 7.40625 6.03007 7.40625 11.0014C7.40625 15.9727 11.4363 20.0028 16.4077 20.0028Z" stroke="white" stroke-width="3" stroke-linecap="round" stroke-linejoin="round"/>
  <path d="M37.9956 32.6043C37.9956 26.5374 34.3951 20.9025 30.7945 18.2021C31.978 17.3141 32.9244 16.1481 33.55 14.8073C34.1755 13.4664 34.4608 11.992 34.3807 10.5145C34.3006 9.03711 33.8575 7.6022 33.0907 6.33681C32.3239 5.07141 31.257 4.01456 29.9844 3.25977" stroke="white" stroke-width="3" stroke-linecap="round" stroke-linejoin="round"/>
</svg>