<svg xmlns="http://www.w3.org/2000/svg" width="23" height="23" viewBox="0 0 23 23" fill="none">
  <path d="M16.9693 13.136L19.5071 15.6738C19.8484 16.015 19.8484 16.5683 19.5071 16.9096C17.6621 18.7546 14.7412 18.9622 12.6538 17.3966L11.144 16.2643C9.47316 15.0111 7.98888 13.5268 6.73571 11.856L5.60338 10.3462C4.03785 8.2588 4.24543 5.3379 6.09043 3.4929C6.43169 3.15164 6.98498 3.15164 7.32624 3.4929L9.86402 6.03069C10.2383 6.40494 10.2383 7.01172 9.86402 7.38598L8.88542 8.36458C8.7299 8.5201 8.69134 8.75769 8.78971 8.95441C9.92692 11.2288 11.7712 13.0731 14.0456 14.2103C14.2423 14.3087 14.4799 14.2701 14.6354 14.1146L15.614 13.136C15.9883 12.7617 16.5951 12.7617 16.9693 13.136Z" stroke="#B2B2B2" stroke-width="0.958333"/>
</svg>