<svg xmlns="http://www.w3.org/2000/svg" width="50" height="50" viewBox="65 65 65 65" fill="none">
  <g filter="url(#filter0_d_567_31)">
    <circle cx="98" cy="94" r="28" fill="#5D3288"/>
    <circle cx="98" cy="94" r="28" stroke="white" stroke-width="3"/>
  </g>
  <path fill-rule="evenodd" clip-rule="evenodd" d="M96.7468 78.6246C92.1171 79.3989 89.1815 83.9742 90.478 88.395C91.2517 91.0337 93.3557 93.0546 96.0766 93.7727C96.7071 93.9391 96.9295 93.9609 98.0013 93.9609C99.0732 93.9609 99.2956 93.9391 99.9261 93.7727C102.655 93.0525 104.749 91.0401 105.526 88.3918C106.804 84.0331 103.924 79.4576 99.3968 78.6541C98.8059 78.5493 97.298 78.5324 96.7468 78.6246ZM92.3587 95.6147C89.5216 95.9403 87.036 97.5291 85.956 99.7073C85.5887 100.448 85.4298 101.132 85.4337 101.956C85.4402 103.335 85.9449 104.436 87.1262 105.649C89.0364 107.61 91.5969 108.8 94.9858 109.303C96.0527 109.461 99.7232 109.485 100.756 109.34C103.33 108.978 105.408 108.256 107.107 107.134C107.916 106.6 109.115 105.493 109.577 104.853C109.965 104.316 110.295 103.633 110.45 103.046C110.597 102.489 110.6 101.419 110.455 100.805C109.832 98.15 106.943 95.9707 103.568 95.6103C102.714 95.5191 93.1587 95.5229 92.3587 95.6147Z" fill="white"/>
  <defs>
    <filter id="filter0_d_567_31" x="0.900002" y="0.900002" width="194.2" height="194.2" filterUnits="userSpaceOnUse" color-interpolation-filters="sRGB">
      <feFlood flood-opacity="0" result="BackgroundImageFix"/>
      <feColorMatrix in="SourceAlpha" type="matrix" values="0 0 0 0 0 0 0 0 0 0 0 0 0 0 0 0 0 0 127 0" result="hardAlpha"/>
      <feOffset dy="4"/>
      <feGaussianBlur stdDeviation="33.8"/>
      <feComposite in2="hardAlpha" operator="out"/>
      <feColorMatrix type="matrix" values="0 0 0 0 0 0 0 0 0 0 0 0 0 0 0 0 0 0 0.5 0"/>
      <feBlend mode="normal" in2="BackgroundImageFix" result="effect1_dropShadow_567_31"/>
      <feBlend mode="normal" in="SourceGraphic" in2="effect1_dropShadow_567_31" result="shape"/>
    </filter>
  </defs>
</svg>